<svg xmlns="http://www.w3.org/2000/svg" viewBox="0 0 512 512" id="application-development"><path d="M494.5 73.5h-427A17.52 17.52 0 0 0 50 91v112.5H17.5A17.52 17.52 0 0 0 0 221v200a17.52 17.52 0 0 0 17.5 17.5H126a17.52 17.52 0 0 0 17.5-17.5v-32.5h351A17.52 17.52 0 0 0 512 371V91a17.52 17.52 0 0 0-17.5-17.5Zm-427 15h427A2.5 2.5 0 0 1 497 91v22.5H65V91a2.5 2.5 0 0 1 2.5-2.5Zm61 332.5a2.5 2.5 0 0 1-2.5 2.5H17.5A2.5 2.5 0 0 1 15 421V221a2.5 2.5 0 0 1 2.5-2.5H126a2.5 2.5 0 0 1 2.5 2.5Zm366-47.5h-351V221a17.52 17.52 0 0 0-17.5-17.5H65v-75h432V371a2.5 2.5 0 0 1-2.5 2.5Z"></path><path d="M106.75 393.5h-70a7.5 7.5 0 0 0 0 15h70a7.5 7.5 0 0 0 0-15zm0-70h-70a7.5 7.5 0 0 0 0 15h70a7.5 7.5 0 0 0 0-15zm0 35h-40a7.5 7.5 0 0 0 0 15h40a7.5 7.5 0 0 0 0-15zm0-125h-70a7.5 7.5 0 0 0-7.5 7.5v50a7.5 7.5 0 0 0 7.5 7.5h70a7.5 7.5 0 0 0 7.5-7.5v-50a7.5 7.5 0 0 0-7.5-7.5zm-7.5 50h-55v-35h55zm-62.5 90h4.75a7.5 7.5 0 0 0 0-15h-4.75a7.5 7.5 0 0 0 0 15zm198.5-80h-30a17.52 17.52 0 0 0-17.5 17.5v20a17.52 17.52 0 0 0 17.5 17.5h30a17.52 17.52 0 0 0 17.5-17.5v-20a17.52 17.52 0 0 0-17.5-17.5zm2.5 37.5a2.5 2.5 0 0 1-2.5 2.5h-30a2.5 2.5 0 0 1-2.5-2.5v-20a2.5 2.5 0 0 1 2.5-2.5h30a2.5 2.5 0 0 1 2.5 2.5zm97.5-37.5h-30a17.52 17.52 0 0 0-17.5 17.5v20a17.52 17.52 0 0 0 17.5 17.5h30a17.52 17.52 0 0 0 17.5-17.5v-20a17.52 17.52 0 0 0-17.5-17.5zm2.5 37.5a2.5 2.5 0 0 1-2.5 2.5h-30a2.5 2.5 0 0 1-2.5-2.5v-20a2.5 2.5 0 0 1 2.5-2.5h30a2.5 2.5 0 0 1 2.5 2.5zm97.5-37.5h-30a17.52 17.52 0 0 0-17.5 17.5v20a17.52 17.52 0 0 0 17.5 17.5h30a17.52 17.52 0 0 0 17.5-17.5v-20a17.52 17.52 0 0 0-17.5-17.5zm2.5 37.5a2.5 2.5 0 0 1-2.5 2.5h-30a2.5 2.5 0 0 1-2.5-2.5v-20a2.5 2.5 0 0 1 2.5-2.5h30a2.5 2.5 0 0 1 2.5 2.5zm-77.5-177.5h-80a17.52 17.52 0 0 0-17.5 17.5v80a17.52 17.52 0 0 0 17.5 17.5h80a17.52 17.52 0 0 0 17.5-17.5v-80a17.52 17.52 0 0 0-17.5-17.5zm2.5 97.5a2.5 2.5 0 0 1-2.5 2.5h-80a2.5 2.5 0 0 1-2.5-2.5v-80a2.5 2.5 0 0 1 2.5-2.5h80a2.5 2.5 0 0 1 2.5 2.5zm62.8-75.3A7.5 7.5 0 0 0 415 186.3l24.64 24.7L415 235.7a7.5 7.5 0 1 0 10.6 10.6l30-30a7.49 7.49 0 0 0 0-10.6zm-205.3 72.8a7.5 7.5 0 0 0 5.3-12.8L200.86 211l24.69-24.7A7.5 7.5 0 0 0 215 175.7l-30 30a7.49 7.49 0 0 0 0 10.6l30 30a7.44 7.44 0 0 0 5.25 2.2z"></path></svg>