<svg xmlns="http://www.w3.org/2000/svg"  fill="none" viewBox="150 150 756 756" id="audio-lines"><path fill="#fff" fill-rule="evenodd" d="M612.5 505V355C612.5 299.772 567.728 255 512.5 255C457.272 255 412.5 299.772 412.5 355V505C412.5 560.228 457.272 605 512.5 605C567.728 605 612.5 560.228 612.5 505ZM512.5 230C443.464 230 387.5 285.964 387.5 355V505C387.5 574.036 443.464 630 512.5 630C581.536 630 637.5 574.036 637.5 505V355C637.5 285.964 581.536 230 512.5 230Z" clip-rule="evenodd"></path><path fill="#fff" fill-rule="evenodd" d="M371.703 559.422C363.982 539.652 360 518.439 360 497H335C335 521.524 339.554 545.824 348.416 568.517 357.279 591.211 370.288 611.878 386.733 629.319 403.179 646.762 422.743 660.64 444.33 670.123 462.53 678.119 481.853 682.851 501.5 684.14V769H467.5V794H557.5V769H526.5V683.916C545.113 682.361 563.397 677.712 580.67 670.123 602.257 660.64 621.821 646.762 638.267 629.319 654.712 611.878 667.721 591.211 676.584 568.517 685.446 545.824 690 521.524 690 497H665C665 518.439 661.018 539.652 653.297 559.422 645.576 579.192 634.276 597.109 620.078 612.169 605.88 627.226 589.066 639.129 570.615 647.235 552.166 655.34 532.421 659.5 512.5 659.5 492.579 659.5 472.834 655.34 454.385 647.235 435.934 639.129 419.12 627.226 404.922 612.169 390.724 597.109 379.424 579.192 371.703 559.422zM587.989 380.829L438 379 438.305 354.002 588.294 355.831 587.989 380.829zM587.989 446.658L438 444.829 438.305 419.831 588.294 421.66 587.989 446.658z" clip-rule="evenodd"></path><path fill="#fff" fill-rule="evenodd" d="M587.989 512.487L438 510.658L438.305 485.66L588.294 487.489L587.989 512.487Z" clip-rule="evenodd"></path></svg>