<svg xmlns="http://www.w3.org/2000/svg" viewBox="0 0 64 64" id="big-data"><g data-name="Outline"><path d="M42.783 6a1 1 0 0 0 0 2 13.285 13.285 0 0 1 9.369 3.818 1 1 0 0 0 1.4-1.426A15.277 15.277 0 0 0 42.783 6Z"></path><circle cx="55" cy="14" r="1"></circle><circle cx="21" cy="28.063" r="1"></circle><circle cx="29" cy="28.063" r="1"></circle><circle cx="25" cy="28.063" r="1"></circle><path d="M44 27.062H34a1 1 0 0 0 0 2h10a1 1 0 0 0 0-2Z"></path><path d="M42.783 2a19.424 19.424 0 0 0-11.891 4.066 14.306 14.306 0 0 0-18.336 9.187A12.387 12.387 0 0 0 7 37.476V56a1 1 0 0 0 1 1h7.8v1.938a3 3 0 0 0 3 3h28.4a3 3 0 0 0 3-3V57H56a1 1 0 0 0 1-1v-7a1 1 0 0 0-2 0v6h-4.8v-1.938a3 3 0 0 0-3-3h-.95v-2.124h.95a3 3 0 0 0 3-3v-5.876a2.983 2.983 0 0 0-.054-.538A19.209 19.209 0 0 0 55 35.643V41a1 1 0 0 0 2 0v-7.234A18.832 18.832 0 0 0 62.032 21 19.147 19.147 0 0 0 42.783 2ZM15.8 53.062V55H9V38.7a12.656 12.656 0 0 0 5.581 1.3H15.8v4.938a3 3 0 0 0 3 3h.95v2.124h-.95a3 3 0 0 0-3 3Zm31.4-1a1 1 0 0 1 1 1v5.876a1 1 0 0 1-1 1H18.8a1 1 0 0 1-1-1v-5.876a1 1 0 0 1 1-1Zm-25.45-2v-2h22.5v2Zm26.45-5.124a1 1 0 0 1-1 1H18.8a1 1 0 0 1-1-1v-5.876a1.026 1.026 0 0 1 1-1h28.4a1.02 1.02 0 0 1 1 1ZM21.75 34.062h22.5v2h-22.5Zm-2.95-2.124a1 1 0 0 1-1-1v-5.876a1 1 0 0 1 1-1h28.4a1 1 0 0 1 1 1v5.876a1 1 0 0 1-1 1Zm30.349 4.845a3.144 3.144 0 0 0-1.949-.721h-.95v-2.124h.95a3 3 0 0 0 3-3v-5.876a3 3 0 0 0-3-3H18.8a3 3 0 0 0-3 3v5.876a3 3 0 0 0 3 3h.95v2.124h-.95A3.034 3.034 0 0 0 16 38h-1.419a10.447 10.447 0 0 1-1.138-20.847 1 1 0 0 0 .865-.747 12.215 12.215 0 0 1 11.885-9.134 12.372 12.372 0 0 1 4.519.858 1 1 0 0 0 1-.16A17.415 17.415 0 0 1 42.783 4a17.145 17.145 0 0 1 17.249 17 17.025 17.025 0 0 1-10.883 15.783Z"></path><circle cx="21" cy="42.063" r="1"></circle><circle cx="29" cy="42.063" r="1"></circle><circle cx="25" cy="42.063" r="1"></circle><path d="M44 41.062H34a1 1 0 0 0 0 2h10a1 1 0 0 0 0-2Z"></path><circle cx="21" cy="56.063" r="1"></circle><circle cx="29" cy="56.063" r="1"></circle><circle cx="25" cy="56.063" r="1"></circle><path d="M34 57.062h10a1 1 0 0 0 0-2H34a1 1 0 0 0 0 2zM20 12a1 1 0 0 0-1 1v6a1 1 0 0 0 2 0v-6a1 1 0 0 0-1-1zm8 0a3 3 0 0 0-3 3v2a3 3 0 0 0 6 0v-2a3 3 0 0 0-3-3zm1 5a1 1 0 0 1-2 0v-2a1 1 0 0 1 2 0zm7-5a1 1 0 0 0-1 1v6a1 1 0 0 0 2 0v-6a1 1 0 0 0-1-1zm8 0a3 3 0 0 0-3 3v2a3 3 0 0 0 6 0v-2a3 3 0 0 0-3-3zm1 5a1 1 0 0 1-2 0v-2a1 1 0 0 1 2 0z"></path><circle cx="56" cy="45" r="1"></circle></g></svg>