<svg xmlns="http://www.w3.org/2000/svg" viewBox="0 0 64 64" id="business-manager"><path d="M62.6 35.15c-1.93-2.23-5.15-2.4-5.17-2.37-.22-.03-.42-.07-.59-.13 0 0-.01 0-.01-.01-.59-.19-.87-.49-.87-.93 2.27-2.14 2.59-5.54 2.6-5.67.09-.76.1-1.47.03-2.08-.39-4.46-4.1-5.49-5.92-5.44-.1 0-2.56-.07-4.33 1.64-1.15 1.12-1.72 2.69-1.71 4.68.01.37.03.77.07 1.17.01.15.33 3.56 2.6 5.7-.03.28-.2.62-.89.84h-.02c-.16.06-.34.09-.55.13-.56.03-3.9.35-5.61 2.93-.77-.13-1.32-.17-1.5-.18-.45-.07-.86-.16-1.22-.27h-.01c-.68-.23-1.22-.86-1.61-1.89-.53-1.35-.6-2.89-.58-3.31 0-.08.01-.15.02-.22 4.23-3.72 4.81-10 4.83-10.25.15-1.31.17-2.53.07-3.59v-.02c0-.02 0-.05-.01-.08-.84-9.57-10.16-9.33-10.18-9.33-.18-.01-4.39-.13-7.41 2.81-1.96 1.91-2.94 4.62-2.91 8.07.01.67.05 1.39.13 2.11.02.27.61 6.56 4.84 10.29 0 .05.01.09 0 .15-.02 1.44-.14 3.29-.25 3.62 0 .01-.01.01-.01.02-.34.66-1 1.15-1.99 1.47h-.02c-.33.11-.71.2-1.17.26-.19.01-.78.05-1.59.2-1.85-2.62-5.4-2.8-5.5-2.8-.22-.03-.41-.07-.58-.13h-.03c-.59-.19-.87-.49-.87-.93 2.27-2.14 2.59-5.54 2.6-5.67.09-.76.1-1.47.03-2.08-.39-4.46-4.07-5.5-5.92-5.44-.1 0-2.56-.07-4.32 1.64-1.15 1.12-1.72 2.69-1.71 4.68.01.37.03.77.07 1.17.01.15.33 3.56 2.6 5.7-.03.28-.2.62-.89.84h-.01c-.16.05-.34.09-.54.12-.47.03-3.4.28-5.21 2.37C.26 36.23-.19 37.93.04 39.97l.34 3.11c.04.36.27.66.61.8.18.07 4.04 1.57 10.17 1.57.2 0 .41-.01.61-.01-.05.84-.04 1.72.07 2.64l.63 5.78c.04.36.27.66.61.8.43.17 7.42 2.87 18.47 2.87 5.51 0 12.03-.67 19.24-2.66.38-.11.66-.43.71-.83l.63-5.78c.11-.94.12-1.84.06-2.69h.24c3.47 0 6.98-.48 10.45-1.44.38-.11.66-.43.71-.83l.34-3.12c.24-2.04-.21-3.73-1.33-5.03zm-13.95-9.31c-.04-.36-.06-.69-.06-1.01-.01-1.43.36-2.52 1.11-3.25 1.16-1.14 2.9-1.11 2.98-1.1.38-.01 3.67.01 3.99 3.69.05.49.04 1.05-.03 1.7 0 .03-.3 3.29-2.44 4.82-.03.02-.05.03-.08.05-.05.04-.1.07-.15.1-.83.51-1.82.51-2.65 0-.05-.03-.1-.07-.15-.1-.03-.02-.05-.04-.08-.05-.07-.05-.13-.1-.19-.15-1.96-1.6-2.25-4.66-2.25-4.7zM37.87 36.48l-2.28 3.93-2.22-2.26 3.31-2.96c.35.53.75.96 1.19 1.29zm-5.86 3.05 1.37 1.4-1.3 1.44c-.03.03-.05.06-.08.1a.7.7 0 0 0-.08-.1l-1.23-1.35 1.32-1.49zm-3.63-5.92c.12-.7.18-1.67.21-2.54 1.08.56 2.24.85 3.41.85 1.18 0 2.35-.3 3.42-.87.06.66.2 1.46.44 2.27l-3.9 3.48-3.58-3.19zM32 43.99l1.51 7.65L32 52.8l-1.52-1.16L32 43.99zm-6.04-33.31c2.41-2.36 5.97-2.28 6.08-2.27.29-.01 6.95-.16 8.12 6.64-4.66.33-10.76-2.87-10.83-2.9a.985.985 0 0 0-1.02.06l-4.54 3.18c.27-1.96 1-3.54 2.19-4.71zm-2.19 8.59c-.05-.5-.08-.98-.1-1.44l5.28-3.69c1.68.82 6.94 3.17 11.38 2.84.02.72 0 1.47-.1 2.31-.01.07-.61 6.54-4.91 9.58a.36.36 0 0 0-.1.07 6.1 6.1 0 0 1-.32.22c-1.81 1.12-3.97 1.12-5.79 0-.11-.07-.22-.14-.33-.22-.03-.03-.07-.05-.11-.07-.15-.11-.3-.22-.44-.34-3.89-3.17-4.45-9.18-4.46-9.26zm3.7 16.12 3.14 2.8-1.93 2.19-2.51-4.01c.5-.27.94-.59 1.3-.98zm-20.1-9.68c-.04-.35-.06-.69-.06-1.01-.01-1.43.36-2.52 1.11-3.25 1.16-1.14 2.91-1.1 2.98-1.1.15 0 3.66-.09 3.99 3.69.05.48.04 1.04-.03 1.69 0 .03-.32 3.3-2.45 4.83-.03.02-.05.03-.08.05-.05.04-.1.07-.15.1-.83.51-1.82.51-2.65 0-.05-.03-.1-.07-.15-.1-.03-.02-.05-.04-.08-.05-.07-.05-.13-.1-.2-.15-1.94-1.59-2.23-4.65-2.23-4.7zm4.71 17.78c-4.94.13-8.52-.82-9.82-1.24l-.27-2.5c-.17-1.48.13-2.67.87-3.54 1.37-1.59 3.85-1.71 3.87-1.71.03 0 .07 0 .1-.01.32-.04.63-.11.91-.2.01 0 .01-.01.02-.01 1.11-.36 1.66-.99 1.95-1.58a4.313 4.313 0 0 0 3.28.01c.34.76 1.02 1.35 1.98 1.66h.02c.28.09.58.16 1.01.22.03 0 2.15.11 3.56 1.39-1.77.57-3.83 1.58-5.4 3.4-1.03 1.18-1.71 2.56-2.08 4.11zm38.14 4.55-.56 5.13c-18.5 4.93-32.44.84-35.31-.12l-.57-5.18c-.33-2.98.28-5.41 1.82-7.2 1.66-1.93 4.09-2.78 5.79-3.16.02 0 .03-.01.05-.01 1.12-.25 1.92-.29 1.94-.29.03 0 .07 0 .1-.01.29-.04.56-.09.81-.15l3.42 5.47c.16.26.44.43.74.45h.08c.28 0 .54-.12.73-.33l.14-.16.75.83-1.7 8.55c-.07.36.07.74.36.96l2.59 1.97c.17.13.38.2.59.2.21 0 .42-.07.59-.2l2.58-1.97c.29-.22.43-.6.36-.96l-1.69-8.55.9-1 .36.37c.18.19.43.29.69.29.04 0 .08 0 .12-.01.3-.04.57-.21.72-.47l3.06-5.26c.27.06.54.11.83.15.03 0 .07.01.1.01.05 0 4.97.21 7.77 3.45 1.55 1.79 2.17 4.21 1.84 7.2zm11.8-8.07-.27 2.46c-3.27.84-6.58 1.22-9.84 1.17-.37-1.53-1.05-2.88-2.05-4.04-1.6-1.86-3.72-2.88-5.51-3.44 1.4-1.38 3.64-1.5 3.66-1.5.04 0 .09-.01.13-.01.28-.05.57-.11.86-.2h.02c.01 0 .01-.01.02-.01h.02c1.1-.36 1.65-.98 1.93-1.57a4.313 4.313 0 0 0 3.28.01c.34.76 1.01 1.34 1.96 1.66.01 0 .02.01.03.02.29.09.6.15 1.02.21.02 0 2.5.13 3.86 1.71.74.85 1.04 2.04.88 3.53z"></path></svg>