<svg xmlns="http://www.w3.org/2000/svg" enable-background="new 0 0 512 512" viewBox="0 0 512 512" id="cable-network"><path  d="M256,384c-19.1,0-36.7-13.8-49.7-38.7C193.9,321.4,187,289.6,187,256s6.9-65.4,19.3-89.3
				c13-25,30.6-38.7,49.7-38.7s36.7,13.8,49.7,38.7c12.5,23.9,19.3,55.6,19.3,89.3s-6.9,65.4-19.3,89.3
				C292.7,370.3,275.1,384,256,384z M256,138c-15.1,0-29.6,11.8-40.8,33.3C203.5,193.9,197,223.9,197,256s6.5,62.1,18.2,84.7
				c11.2,21.5,25.7,33.3,40.8,33.3s29.6-11.8,40.8-33.3c11.7-22.5,18.2-52.6,18.2-84.7s-6.5-62.1-18.2-84.7
				C285.6,149.8,271.1,138,256,138z"></path><rect width="10" height="246" x="251" y="133" ></rect><path  d="M343.2,344.6C320.8,332.1,289,325,256,325s-64.8,7.1-87.2,19.6l-4.8-8.7
				c24.2-13.4,56.9-20.8,92.1-20.8s67.8,7.4,92.1,20.8L343.2,344.6z"></path><rect width="246" height="10" x="133" y="251" ></rect><path  d="M256,197c-35.1,0-67.8-7.4-92.1-20.8l4.8-8.7C191.2,179.9,223,187,256,187
				s64.8-7.1,87.2-19.6l4.8,8.7C323.8,189.6,291.1,197,256,197z"></path><rect width="10" height="104" x="251" y="29" ></rect><path  d="M256 34c-9.4 0-17-7.6-17-17s7.6-17 17-17 17 7.6 17 17S265.4 34 256 34zM256 10c-3.9 0-7 3.1-7 7s3.1 7 7 7 7-3.1 7-7S259.9 10 256 10zM309 80c-9.4 0-17-7.6-17-17s7.6-17 17-17 17 7.6 17 17S318.4 80 309 80zM309 56c-3.9 0-7 3.1-7 7s3.1 7 7 7 7-3.1 7-7S312.9 56 309 56zM17 186c-9.4 0-17-7.6-17-17s7.6-17 17-17 17 7.6 17 17S26.4 186 17 186zM17 162c-3.9 0-7 3.1-7 7s3.1 7 7 7 7-3.1 7-7S20.9 162 17 162zM17 341c-9.4 0-17-7.6-17-17s7.6-17 17-17 17 7.6 17 17S26.4 341 17 341zM17 317c-3.9 0-7 3.1-7 7s3.1 7 7 7 7-3.1 7-7S20.9 317 17 317zM320 512c-9.4 0-17-7.6-17-17s7.6-17 17-17 17 7.6 17 17S329.4 512 320 512zM320 488c-3.9 0-7 3.1-7 7s3.1 7 7 7 7-3.1 7-7S323.9 488 320 488zM137 491c-9.4 0-17-7.6-17-17s7.6-17 17-17 17 7.6 17 17S146.4 491 137 491zM137 467c-3.9 0-7 3.1-7 7s3.1 7 7 7 7-3.1 7-7S140.9 467 137 467zM256 466c-9.4 0-17-7.6-17-17s7.6-17 17-17 17 7.6 17 17S265.4 466 256 466zM256 442c-3.9 0-7 3.1-7 7s3.1 7 7 7 7-3.1 7-7S259.9 442 256 442zM50 273c-9.4 0-17-7.6-17-17s7.6-17 17-17 17 7.6 17 17S59.4 273 50 273zM50 249c-3.9 0-7 3.1-7 7s3.1 7 7 7 7-3.1 7-7S53.9 249 50 249zM495 329c-9.4 0-17-7.6-17-17s7.6-17 17-17 17 7.6 17 17S504.4 329 495 329zM495 305c-3.9 0-7 3.1-7 7s3.1 7 7 7 7-3.1 7-7S498.9 305 495 305zM466 273c-9.4 0-17-7.6-17-17s7.6-17 17-17 17 7.6 17 17S475.4 273 466 273zM466 249c-3.9 0-7 3.1-7 7s3.1 7 7 7 7-3.1 7-7S469.9 249 466 249zM495 186c-9.4 0-17-7.6-17-17s7.6-17 17-17 17 7.6 17 17S504.4 186 495 186zM495 162c-3.9 0-7 3.1-7 7s3.1 7 7 7 7-3.1 7-7S498.9 162 495 162zM180 57c-9.4 0-17-7.6-17-17s7.6-17 17-17 17 7.6 17 17S189.4 57 180 57zM180 33c-3.9 0-7 3.1-7 7s3.1 7 7 7 7-3.1 7-7S183.9 33 180 33z"></path><path  d="M256,93h-76c-2.8,0-5-2.2-5-5V52h10v31h71V93z"></path><rect width="10" height="70" x="304" y="75" ></rect><path  d="M256,384c-70.6,0-128-57.4-128-128c0-14.8,2.5-29.2,7.4-43H92c-2.8,0-5-2.2-5-5v-34H29v-10
				h63c2.8,0,5,2.2,5,5v34h45.7c1.7,0,3.2,0.8,4.2,2.2c0.9,1.4,1.1,3.2,0.4,4.7c-6.2,14.6-9.3,30.1-9.3,46c0,65.1,52.9,118,118,118
				c14.5,0,28.8-2.6,42.2-7.8l3.6,9.3C287.2,381.2,271.8,384,256,384z"></path><rect width="71" height="10" x="62" y="251" ></rect><path  d="M97,329H29v-10h63v-63h10v68C102,326.8,99.8,329,97,329z"></path><rect width="117" height="10" x="366" y="307" ></rect><path  d="M430 312h-10v-56c0-2.8 2.2-5 5-5h29v10h-24V312zM407 213h-38v-10h33v-34c0-2.8 2.2-5 5-5h76v10h-71v34C412 210.8 409.8 213 407 213z"></path><path  d="M325 483h-10l0-121.9c0-1.7.9-3.4 2.4-4.3C352.8 335.2 374 297.5 374 256c0-65.1-52.9-118-118-118-39.6 0-76.4 19.7-98.3 52.8l-8.3-5.5C173.1 149.4 213 128 256 128c70.6 0 128 57.4 128 128 0 22.3-5.8 44.3-16.9 63.6-10.2 17.9-24.8 33.1-42.1 44.2L325 483zM142 462h-10v-40c0-2.8 2.2-5 5-5h46v-58h10v63c0 2.8-2.2 5-5 5h-46V462z"></path><rect width="10" height="58" x="251" y="379" ></rect></svg>