<svg xmlns="http://www.w3.org/2000/svg" viewBox="50 50 400 400" id="compass"><path d="M296 160c0-22.056-17.944-40-40-40s-40 17.944-40 40 17.944 40 40 40 40-17.944 40-40Zm-40 24c-13.232 0-24-10.768-24-24s10.768-24 24-24 24 10.768 24 24-10.768 24-24 24Z"></path><path d="M367.808 413.128 316.6 280H348c4.424 0 8-3.576 8-8 0-4.424-3.576-8-8-8h-37.552l-16.496-42.88C315.128 208.04 328 185.232 328 160c0-36.992-28.056-67.528-64-71.528V48c0-4.416-3.584-8-8-8s-8 3.584-8 8v40.472c-35.944 4-64 34.536-64 71.528 0 24.96 13.264 48.272 34.328 61.272L201.888 264H161c-4.416 0-8 3.576-8 8 0 4.424 3.584 8 8 8h34.736l-51.2 133.128a8.047 8.047 0 0 0-.12 5.408l16 48c1.168 3.488 4.584 5.768 8.216 5.448a8 8 0 0 0 7.264-6.664l7.88-47.28L233.464 280H248v8c0 4.424 3.584 8 8 8s8-3.576 8-8v-8h14.872l49.688 138.032 7.88 47.28a8 8 0 0 0 7.904 6.688 7.982 7.982 0 0 0 7.576-5.472l16-48a7.975 7.975 0 0 0-.112-5.4ZM264 264v-8c0-4.416-3.584-8-8-8s-8 3.584-8 8v8h-8.784l11.6-32.216c3.664.304 7.072.28 10.688-.016L273.112 264H264Zm82.928 166.912-2.704-16.224c-.08-.48-.2-.944-.368-1.4l-69.48-192.992a7.99 7.99 0 0 0-7.512-5.288 7.8 7.8 0 0 0-1.36.112c-6.704 1.152-11.816 1.184-18.744.04-3.808-.616-7.52 1.552-8.832 5.176L168.472 413.28c-.168.456-.288.92-.36 1.4l-2.704 16.224-4.904-14.72 75.264-195.696a8 8 0 0 0-3.992-10.08C212.168 200.984 200 181.664 200 160c0-30.88 25.12-56 56-56 30.872 0 56 25.12 56 56 0 21.544-12.08 40.816-31.52 50.296a8.008 8.008 0 0 0-3.96 10.064l75.32 195.832-4.912 14.72Z"></path></svg>