<svg xmlns="http://www.w3.org/2000/svg" enable-background="new 0 0 64 64" viewBox="0 0 64 64" id="configuration"><path d="M34.645,51.645c-0.173-0.301-0.493-0.484-0.84-0.484h-3.619c-0.346,0-0.667,0.186-0.84,0.484l-1.813,3.145
		c-0.173,0.301-0.173,0.67,0.001,0.969l1.813,3.137c0.173,0.299,0.493,0.484,0.839,0.484h3.619c0.346,0,0.666-0.186,0.839-0.484
		l1.814-3.135c0.174-0.301,0.174-0.67,0.001-0.971L34.645,51.645z M33.246,57.439h-2.5l-1.252-2.166l1.252-2.174h2.5l1.253,2.174
		L33.246,57.439z"></path><path d="M37.063,48.16V20.15c3.857-1.889,6.315-5.781,6.315-10.092c0-4.176-2.315-7.988-6.043-9.947
		c-0.3-0.158-0.662-0.146-0.953,0.029c-0.29,0.176-0.468,0.49-0.468,0.83v8.227L32,11.018l-3.914-1.82V0.971
		c0-0.34-0.178-0.654-0.468-0.83c-0.292-0.176-0.652-0.188-0.953-0.029c-3.729,1.959-6.045,5.771-6.045,9.947
		c0,4.303,2.455,8.195,6.307,10.092v28.012c-2.298,1.645-3.655,4.264-3.655,7.111C23.273,60.086,27.188,64,32,64
		s8.727-3.914,8.727-8.727C40.728,52.424,39.368,49.803,37.063,48.16z M32,62.061c-3.742,0-6.788-3.045-6.788-6.787
		c0-2.359,1.197-4.516,3.201-5.773c0.283-0.178,0.455-0.488,0.455-0.82V19.527c0-0.389-0.233-0.74-0.592-0.893
		c-3.472-1.471-5.715-4.838-5.715-8.576c0-2.889,1.341-5.566,3.586-7.314v7.072c0,0.377,0.219,0.721,0.561,0.879l4.883,2.27
		c0.26,0.121,0.559,0.121,0.818,0l4.883-2.27c0.342-0.158,0.561-0.502,0.561-0.879V2.744c2.244,1.748,3.585,4.426,3.585,7.314
		c0,3.744-2.246,7.111-5.722,8.574c-0.36,0.152-0.594,0.504-0.594,0.895V48.68c0,0.334,0.172,0.645,0.457,0.822
		c2.009,1.254,3.208,3.412,3.208,5.771C38.789,59.016,35.743,62.061,32,62.061z"></path></svg>