<svg xmlns="http://www.w3.org/2000/svg" viewBox="0 0 64 64" id="customer-care"><path d="M54,27.29v-.35a21.94,21.94,0,1,0-43.88.12v.2A7,7,0,0,0,5,34v2a7,7,0,0,0,7,7h1.05A13,13,0,0,0,26,55h6a5,5,0,0,0,5-5V49a1,1,0,0,0-1-1H28a1,1,0,0,0-1,1v4H26A11,11,0,0,1,15,42V28a1,1,0,0,0-1-1H12.12A19.94,19.94,0,1,1,52,26.94V27H50a1,1,0,0,0-1,1V42a1,1,0,0,0,1,1h2a7,7,0,0,0,7-7V34A7,7,0,0,0,54,27.29ZM29,50h6a3,3,0,0,1-3,3H29ZM13,41H12a5,5,0,0,1-5-5V34a5,5,0,0,1,5-5h1Zm44-5a5,5,0,0,1-5,5H51V29h1a5,5,0,0,1,5,5Z" data-name="7"></path></svg>