<svg xmlns="http://www.w3.org/2000/svg" viewBox="0 0 64 64" id="data"><path fill-rule="evenodd" d="M14.965 8.021c-.065-.007-.119 0-.158.004-.048.006-.055.01-.077.014a.5.5 0 0 0-.093.006l-1.002.16a.5.5 0 0 0-.051.01.762.762 0 0 0-.533.92l.263.986a3.997 3.997 0 0 0-.445.34l-.883-.508a.763.763 0 0 0-1.023.276.5.5 0 0 0-.002 0l-.504.87a.762.762 0 0 0 .275 1.028l.88.508c-.039.185-.061.37-.073.558l-.98.262a.5.5 0 0 0-.002 0 .76.76 0 0 0-.532.92.5.5 0 0 0 0 .002l.067.242.129.485.064.242a.5.5 0 0 0 0 .004.758.758 0 0 0 .922.53l.982-.263c.105.157.217.306.342.447l-.508.88a.761.761 0 0 0 .274 1.027l.873.504a.762.762 0 0 0 1.027-.274.5.5 0 0 0 0-.002l.51-.88c.184.037.369.062.557.074l.261.982a.76.76 0 0 0 .922.53l.971-.26a.762.762 0 0 0 .533-.92l-.262-.98c.157-.105.303-.22.444-.345l.883.508a.76.76 0 0 0 1.027-.275.5.5 0 0 0 0-.002l.502-.87h-.002a.761.761 0 0 0-.273-1.027l-.88-.507c.038-.185.06-.37.07-.557l.983-.266a.762.762 0 0 0 .534-.92.5.5 0 0 0 0-.002l-.067-.242-.062-.24a.5.5 0 0 0-.002-.004l-.065-.242-.064-.24a.5.5 0 0 0 0-.002.76.76 0 0 0-.922-.532l-.983.264a3.992 3.992 0 0 0-.341-.447l.508-.881a.762.762 0 0 0-.276-1.027l-.871-.502a.76.76 0 0 0-1.027.275l-.508.879a4.022 4.022 0 0 0-.559-.072l-.261-.983.011.06a.663.663 0 0 0-.297-.448.596.596 0 0 0-.226-.077zm23.193.909c-1.463 0-2.796.706-3.734 1.812-.45-.225-.915-.437-1.422-.437-1.684 0-3.03 1.31-3.188 2.955-.203-.06-.378-.205-.593-.205-.906 0-1.622.611-1.961 1.424-1.673.13-3.008 1.495-3.008 3.2a3.254 3.254 0 0 0 3.25 3.25H34V25H14.668a2.3 2.3 0 0 0-2.291 2.297V37.5H11v-6.07a.5.5 0 0 0-.5-.5h-7a.5.5 0 0 0-.5.5v12a.5.5 0 0 0 .5.5h7a.5.5 0 0 0 .5-.5V38.5h1.377v12.53h-2.5a.5.5 0 0 0-.5.5A5.47 5.47 0 0 0 14.85 57h39.054a5.47 5.47 0 0 0 5.473-5.47.5.5 0 0 0-.5-.5h-2.5v-13.1H58.5a.5.5 0 1 0 0-1h-.646c-.539 0-.97-.431-.97-1v-1h6.042c.603 0 1.074-.52 1.074-1.11V22.04c0-.592-.471-1.11-1.074-1.11H46.074c-.603 0-1.074.518-1.074 1.11V25H35v-4.07h6.252a3.254 3.254 0 0 0 3.25-3.25c0-1.143-.65-2.078-1.543-2.655.087-.37.168-.745.168-1.127a4.977 4.977 0 0 0-4.969-4.968zm-23.691.043c.07.04.059.003.107.015l.002.004-.11-.02zm.129.091.261.977a.5.5 0 0 0 .504.371c.357-.016.713.03 1.053.139a.5.5 0 0 0 .586-.227l.547-.947.441.254-.545.947a.5.5 0 0 0 .094.617c.263.242.482.528.645.846a.5.5 0 0 0 .574.254l1.058-.283a.5.5 0 0 0 0 .004l.067.24.062.242a.5.5 0 0 0 .002.004l-1.058.285a.5.5 0 0 0-.37.508c.018.356-.028.713-.134 1.053a.5.5 0 0 0 .226.582l.946.545-.256.443-.95-.547a.5.5 0 0 0-.619.098c-.239.263-.524.482-.84.646a.5.5 0 0 0-.251.573l.283 1.054-.494.133-.283-1.057a.5.5 0 0 0-.506-.37 3.025 3.025 0 0 1-1.053-.137.5.5 0 0 0-.584.226l-.545.947-.443-.255.547-.948a.5.5 0 0 0-.096-.62 3.028 3.028 0 0 1-.649-.843.5.5 0 0 0-.574-.252l-1.055.286v-.002a.5.5 0 0 0 0-.002l-.13-.489a.5.5 0 0 0 0-.002l1.054-.28a.5.5 0 0 0 .371-.507c-.016-.356.031-.713.14-1.052a.5.5 0 0 0-.227-.584l-.948-.547.256-.442.947.543a.5.5 0 0 0 .618-.093c.24-.263.526-.482.843-.645a.5.5 0 0 0 .254-.574l-.277-1.031.508-.08zm23.562.866a3.962 3.962 0 0 1 3.795 5.127.5.5 0 0 0 .264.597 2.23 2.23 0 0 1 1.285 2.026c0 1.255-.995 2.25-2.25 2.25h-5.24v-1.5h1.166a.5.5 0 0 0 .34-.866l-2.676-2.5a.5.5 0 0 0-.367-.134.5.5 0 0 0-.32.138l-2.622 2.5a.5.5 0 0 0 .344.862h1.168v1.5h-5.543a2.234 2.234 0 0 1-2.25-2.25c0-1.255.995-2.25 2.25-2.25h.035a.5.5 0 0 0 .49-.399 1.215 1.215 0 0 1 1.944-.715.5.5 0 0 0 .804-.464 2.241 2.241 0 0 1 2.227-2.547c.45 0 .888.136 1.26.388a.5.5 0 0 0 .687-.12 3.96 3.96 0 0 1 3.21-1.643zm-22.61.988v.002a.5.5 0 0 0-.099.016.5.5 0 0 0-.004.002c-.2.003-.4.012-.593.064a2.522 2.522 0 0 0-1.805 2.959c.007.035.013.069.02.098a.5.5 0 0 0 .007.027c.008.03.019.06.03.094h-.002c.021.066.047.132.074.197l.002.002a2.52 2.52 0 0 0 2.974 1.48.5.5 0 0 0 .002 0 2.52 2.52 0 0 0 1.834-2.771l-.011-.086a.5.5 0 0 0 0-.01 2.539 2.539 0 0 0-.047-.213.5.5 0 0 0-.002-.006 2.487 2.487 0 0 0-.074-.224.5.5 0 0 0-.002-.008l-.006-.012a.5.5 0 0 0 0-.002l-.02-.047c-.335-.821-1.1-1.34-1.965-1.474a.5.5 0 0 0-.125-.063l-.004.02c-.048-.005-.085-.043-.134-.045a.5.5 0 0 0-.05 0zm.01 1.002h.003c.592.025 1.115.39 1.34.94a.5.5 0 0 0 .005.017.303.303 0 0 1 .012.027l.006.012a1.552 1.552 0 0 1 .066.248l.006.05a.5.5 0 0 0 .002.01 1.51 1.51 0 0 1-2.896.778.5.5 0 0 0-.002-.008 1.527 1.527 0 0 1-.047-.123.5.5 0 0 0 0-.002.982.982 0 0 1-.016-.05v-.003l-.01-.048a.5.5 0 0 0-.002-.02c-.008-.037-.016-.074-.021-.113a1.508 1.508 0 0 1 1.555-1.715zm-10.08 4.02a.5.5 0 0 0-.087.017l-1.166.313a.81.81 0 0 0-.569.98l.334 1.244a4.706 4.706 0 0 0-.642.49l-1.114-.638a.814.814 0 0 0-1.093.29l-.604 1.048a.81.81 0 0 0 .291 1.095l1.113.643a4.703 4.703 0 0 0-.107.803l-1.238.332a.812.812 0 0 0-.57.98.5.5 0 0 0 .001.002l.078.291.157.582.076.291a.5.5 0 0 0 .002.002.808.808 0 0 0 .982.568.5.5 0 0 0 .002 0l1.24-.334c.147.229.31.443.493.643l-.643 1.111a.811.811 0 0 0 .293 1.096l1.047.606a.812.812 0 0 0 1.096-.293l.642-1.114c.265.058.532.094.803.106l.33 1.24a.5.5 0 0 0 .002.002.808.808 0 0 0 .982.564l1.166-.312a.81.81 0 0 0 .569-.98l-.332-1.24c.228-.147.44-.312.64-.495l1.116.643a.81.81 0 0 0 1.093-.295.5.5 0 0 0 .002 0l.602-1.045h-.002a.81.81 0 0 0-.291-1.096l-1.111-.642c.057-.266.092-.532.103-.803l1.24-.334a.81.81 0 0 0 .569-.98.5.5 0 0 0 0-.003l-.078-.289-.077-.29a.5.5 0 0 0-.002-.005l-.078-.289-.076-.29a.5.5 0 0 0-.002-.003.81.81 0 0 0-.982-.566.5.5 0 0 0-.002 0l-1.239.334a4.7 4.7 0 0 0-.492-.647l.64-1.109a.811.811 0 0 0-.292-1.096l-1.047-.605a.81.81 0 0 0-1.096.295l-.642 1.113a4.695 4.695 0 0 0-.803-.105l-.33-1.243.012.061a.735.735 0 0 0-.23-.428.756.756 0 0 0-.31-.16c-.08-.022-.138-.027-.171-.031a.5.5 0 0 0-.004-.002H5.67a.5.5 0 0 0-.14-.024.5.5 0 0 0-.051 0zm29.026.177 1.406 1.313h-.398a.5.5 0 0 0-.5.5v2h-.967v-2a.5.5 0 0 0-.5-.5h-.418l1.377-1.313zm-29.045.856.365 1.365a.5.5 0 0 0 .506.371c.44-.02.878.039 1.297.172a.5.5 0 0 0 .584-.227l.707-1.226.703.406-.705 1.223a.5.5 0 0 0 .096.617c.324.298.592.651.793 1.043a.5.5 0 0 0 .574.254l1.367-.367.025.097a.5.5 0 0 0 0 .004l.08.291.077.29a.5.5 0 0 0 0 .003l.027.098-1.367.367a.5.5 0 0 0-.37.508c.022.439-.034.877-.165 1.297a.5.5 0 0 0 .226.582l1.221.707-.406.703-1.227-.707a.5.5 0 0 0-.619.097 3.73 3.73 0 0 1-1.035.8.5.5 0 0 0-.252.572l.365 1.36-.785.212-.365-1.365a.5.5 0 0 0-.506-.372c-.44.021-.878-.035-1.297-.168a.5.5 0 0 0-.584.227l-.705 1.223-.705-.407.707-1.224a.5.5 0 0 0-.096-.62 3.737 3.737 0 0 1-.799-1.038.5.5 0 0 0-.574-.252l-1.363.367-.025-.1a.5.5 0 0 0 0-.002l-.157-.584a.5.5 0 0 0 0-.002l-.027-.097 1.363-.364a.5.5 0 0 0 .37-.505c-.02-.44.038-.88.171-1.3a.5.5 0 0 0-.226-.583L1.5 20.014l.406-.703 1.223.703a.5.5 0 0 0 .617-.096c.297-.324.65-.592 1.041-.793a.5.5 0 0 0 .254-.574l-.367-1.367.785-.211zm1.104 2.543v.002a.5.5 0 0 0-.098.015.5.5 0 0 0-.004.002c-.24.003-.48.016-.713.078a.5.5 0 0 0-.002 0 2.921 2.921 0 0 0-2.092 3.432c.007.04.015.081.026.125a.5.5 0 0 0 .006.02c.01.04.02.072.029.1a.5.5 0 0 0 .002.007c.026.08.055.16.088.236l.002.002a2.921 2.921 0 0 0 3.449 1.713.5.5 0 0 0 .002 0 2.923 2.923 0 0 0 2.129-3.213 2.355 2.355 0 0 0-.014-.105.5.5 0 0 0-.002-.008 2.915 2.915 0 0 0-.053-.246.5.5 0 0 0-.002-.008 2.933 2.933 0 0 0-.086-.26.5.5 0 0 0-.001-.006l-.006-.015a.5.5 0 0 0-.002-.002c-.01-.023-.016-.042-.024-.059l-.002-.002a2.917 2.917 0 0 0-2.582-1.808.5.5 0 0 0-.05 0zm.01.998v.002h.001c.75.03 1.414.495 1.697 1.191a.5.5 0 0 0 .004.008c.008.018.013.035.018.047v-.004l.006.015c.02.055.037.11.053.165v-.006a1.86 1.86 0 0 1 .04.218.5.5 0 0 0 .003.02 1.91 1.91 0 0 1-3.665.982.5.5 0 0 0-.003-.007c-.021-.05-.04-.1-.057-.15l-.002-.009a1.527 1.527 0 0 1-.033-.137.5.5 0 0 0-.004-.019 1.91 1.91 0 0 1 1.941-2.316zm39.501 1.416h16.852c.033 0 .074.024.074.11v11.78c0 .085-.04.11-.074.11h-6.451a.5.5 0 0 0-.098-.008.5.5 0 0 0-.088.008h-3.588a.5.5 0 0 0-.097-.008.5.5 0 0 0-.088.008h-6.442c-.033 0-.074-.025-.074-.11V22.04c0-.086.04-.11.074-.11zm1.426 1a.5.5 0 0 0-.5.5v8a.5.5 0 0 0 .5.5h14a.5.5 0 0 0 .5-.5v-8a.5.5 0 0 0-.5-.5h-14zm.5 1h13v7H48v-7zM14.668 26H34v2.016H15.877a.5.5 0 0 0-.5.5V37.5h-2V27.297A1.28 1.28 0 0 1 14.668 26zM35 26h10v2.016H35V26zm-18.623 3.016H34v1.005a8.44 8.44 0 0 0-1.06.118 8.425 8.425 0 0 0-3.012 1.18c-3.442 2.184-4.782 6.476-3.356 10.181h-7.195V38a.5.5 0 0 0-.5-.5h-2.5v-8.484zm18.623 0h10v4.804c0 .59.471 1.11 1.074 1.11h6.037v.826a.5.5 0 0 0 0 .008l.004.166c0 .569-.43 1-.969 1H50.5a.5.5 0 1 0 0 1h1.877v1h-5V37a.5.5 0 0 0-.5-.5h-4.182a8.423 8.423 0 0 0-1.355-2.97c-1.532-2.135-3.89-3.339-6.34-3.497v-1.017zm-15.508.914a.5.5 0 0 0-.346.146l-.994.996a.5.5 0 1 0 .707.707l.141-.14v2.154a.5.5 0 1 0 1 0v-2.154l.14.14a.5.5 0 1 0 .708-.707l-.994-.996a.5.5 0 0 0-.362-.146zm15.016 1.068a7.452 7.452 0 0 1 6.02 3.113 7.46 7.46 0 0 1-1.372 10.16l.63.778a8.46 8.46 0 0 0 3.08-7.549h3.511v1.93a.5.5 0 0 0 .5.5h5.5v8.086h-36V38.5h2V42a.5.5 0 0 0 .5.5h8.15c.016.029.027.06.043.088a8.472 8.472 0 0 0 11.088 3.494l-.437-.9a7.458 7.458 0 0 1-9.778-3.082 7.456 7.456 0 0 1 2.52-9.936 7.443 7.443 0 0 1 4.045-1.166zM4 31.93h6v2H4v-2zm30.5 0a6.508 6.508 0 0 0-6.5 6.5c0 3.584 2.916 6.5 6.5 6.5s6.5-2.916 6.5-6.5-2.916-6.5-6.5-6.5zm20.02.445a.554.554 0 0 0-.553.555.554.554 0 0 0 .553.552.554.554 0 0 0 .554-.552.554.554 0 0 0-.554-.555zm-48.514.055v1h1.988v-1H6.006zm15.486.5a.5.5 0 0 0-.492.508v2.214l-.154-.144a.5.5 0 0 0-.364-.139.5.5 0 0 0-.318.871l.996.926a.5.5 0 0 0 .68 0l.996-.926a.5.5 0 0 0-.682-.732l-.154.144v-2.215a.5.5 0 0 0-.508-.507zm13.008 0c1.274 0 2.44.435 3.371 1.158-.038.018-.077.032-.107.082-.042.068-.16.123-.26.123s-.301.112-.445.246c-.188.174-.307.208-.416.117-.172-.142-.364.049-.245.242.038.062-.04.084-.175.05a.825.825 0 0 0-.463.03c-.12.053-.26.086-.31.075-.052-.011-.093.037-.093.105s-.11.01-.246-.125c-.337-.337-.534-.31-.978.133-.412.412-.48.668-.205.773.114.044.22-.058.302-.294.145-.416.399-.5.293-.098-.05.19-.024.239.084.172.112-.07.108-.025-.011.166-.09.143-.217.262-.285.27-.545.04-.928.271-.928.56 0 .093-.06.17-.133.17-.073 0-.115.13-.094.29.021.161-.034.378-.12.483-.239.287-.327 1.044-.15 1.258.084.1.335.218.56.26.428.08.549.29.552.96 0 .194.09.539.2.768.17.358.232.4.439.29.132-.072.27-.224.304-.339.036-.114.115-.304.178-.421.063-.118.115-.351.115-.518 0-.167.122-.512.272-.766.26-.44.262-.458.031-.377-.161.057-.129 0 .098-.171.336-.255.469-.636.2-.577-.075.017-.165-.038-.196-.125-.046-.125.012-.127.293-.007.53.226.636.334.722.726.077.352.357.68.291.344-.049-.252.138-.72.287-.72.073 0 .263.14.424.314.315.34.594.3.477-.069-.05-.156.004-.25.174-.304.282-.09.403-.376.326-.776-.048-.247-.025-.264.201-.142.164.088.227.092.176.01-.044-.071.04-.24.185-.376.19-.177.244-.332.19-.548-.037-.149-.032-.264.027-.354a5.974 5.974 0 0 0-.271-.518 5.477 5.477 0 0 1 .507 4.874c-.127.02-.317.138-.517.347-.283.295-.328.427-.26.738.025.113.045.183.068.233A5.484 5.484 0 0 1 34.5 43.93a5.474 5.474 0 0 1-3.645-1.387.678.678 0 0 1 .153-.229c.352-.292.984-1.295 1.074-1.703.067-.306.038-.386-.172-.453-.14-.044-.254-.153-.254-.242s-.182-.229-.402-.31a6.97 6.97 0 0 1-.596-.25.22.22 0 0 0-.101-.03c-.091.001-.156.097-.239.326-.203.562-.18.82.1 1.118.222.236.235.347.135 1.242-.011.097-.008.145-.016.23A5.477 5.477 0 0 1 29 38.43c0-.101.01-.2.016-.3.294.393.646.76.925.905.163.085.324.127.358.096.034-.032-.006-.083-.086-.111-.082-.03-.119-.127-.084-.217.04-.104-.021-.158-.162-.147-.149.013-.225-.065-.225-.228 0-.189.081-.25.34-.242.19.003.34-.061.34-.147 0-.209.543-.781.754-.793.125-.008.13-.027.017-.072-.304-.123-.155-.315.184-.236.252.058.292.046.154-.047-.102-.07-.13-.127-.066-.127.064-.001-.075-.191-.309-.422-.449-.443-.611-.461-.611-.067 0 .288-.119.303-.44.055-.217-.168-.22-.2-.04-.34.108-.085.236-.279.285-.431.095-.3.254-.359.388-.141.047.075.018.18-.064.23-.108.067-.09.116.066.176.221.085.45-.129.381-.357-.044-.148-.612-.46-.88-.52.053-.066.112-.128.17-.191h.001c.17-.189.35-.368.543-.531.192.123.452.523.522.85.046.214.136.492.2.614.15.285.399.208.45-.14.022-.148.082-.27.135-.27.052 0 .195-.186.318-.414l.225-.414-.36-.449c-.256-.322-.384-.45-.547-.42-.007.001-.016.008-.023.01a5.49 5.49 0 0 1 2.625-.662zm-.37.867c-.025-.003-.054.01-.081.037-.04.04-.03.144.023.23.078.126.107.126.149 0 .045-.134-.013-.26-.09-.267zm-2.599.004c-.039.03-.082.05-.125.078.04-.028.084-.052.125-.078zm4.639.369c-.103 0-.249.117-.324.258-.125.233-.114.242.113.12.333-.177.444-.378.21-.378zM4 34.93h6v5.008H4V34.93zm49.111 0h2.774v1c0 .364.104.703.275 1h-3.32c.17-.297.275-.636.275-1a.5.5 0 0 0 0-.008l-.004-.17v-.822zm-22.996.183c.015.033.025.065.051.096.124.15.109.179-.096.164-.051-.004-.086-.022-.119-.039.052-.076.109-.148.164-.22zm2.59.086c-.193 0-.242.11-.107.244.092.093.29-.01.29-.148 0-.052-.081-.096-.183-.096zm6.315.096c.035.05.068.102.101.154a5.974 5.974 0 0 0-.101-.154zm-5.678.678c-.036-.005-.082.03-.156.105-.2.2-.232.365-.05.252.069-.042.124-.005.124.08 0 .107.04.115.127.028.07-.07.093-.22.05-.33-.033-.088-.06-.131-.095-.135zm2.265.726c.082-.05.238.33.243.588 0 .05-.048.092-.108.092-.139 0-.258-.603-.135-.68zm-.544.022c.085.006.13.066.138.183.01.126.007.22-.006.213a2.338 2.338 0 0 0-.238-.07c-.28-.073-.277-.24.006-.315a.31.31 0 0 1 .1-.011zm-1.079.115c.102-.004.188.034.221.121.037.097.172.176.3.176.13 0 .235.055.235.123s.088.123.194.123c.105 0 .157.055.115.123-.042.068-.295.123-.563.123-.267 0-.486-.055-.486-.123s-.14-.123-.313-.123c-.267 0-.295-.033-.189-.23a.618.618 0 0 1 .486-.313zm5.596.05c-.05.001-.154.14-.232.31-.079.168-.102.306-.051.306.05 0 .155-.139.232-.309.078-.17.1-.306.051-.306zm-4.582 1.003c.02-.005.099.106.19.273.104.193.166.373.138.4-.054.055-.342-.519-.334-.666 0-.005.004-.006.006-.007zm18.379.04H54v1h-.623v-1zm1.623 0h.377v13.1h-42V38.5h2v10.016a.5.5 0 0 0 .5.5h37a.5.5 0 0 0 .5-.5V39.93H54.5a.5.5 0 0 0 .5-.5v-1.5zm-24.617.563c-.088.001-.072.05.039.121.237.153.28.153.185 0a.292.292 0 0 0-.224-.12zm7.394.533c-.044-.008-.076.02-.076.075 0 .071.057.13.125.13s.123-.024.123-.054-.055-.09-.123-.131a.139.139 0 0 0-.049-.02zm.705.006a.101.101 0 0 0-.04.016c-.068.041-.124.127-.124.191 0 .178.088.138.17-.076.032-.082.028-.13-.006-.13zm.375.498c0 .006.006.02.016.041.043.085.02.155-.053.155a.134.134 0 0 0-.13.136c0 .075.083.104.185.065.102-.039.184-.017.184.049s.028.119.062.119c.12 0 .059-.202-.133-.438-.08-.099-.129-.146-.13-.127zm-.63.094c-.044.005.035.162.25.44.065.084.167.154.226.154.06 0-.013-.137-.16-.307-.174-.2-.283-.29-.316-.287zm-2.631.545a.13.13 0 0 0-.073.012c-.09.035-.166.17-.166.299 0 .335.209.287.276-.065.03-.16.02-.237-.037-.246zM4 40.938h6v1.992H4v-1.992zm2.965.402a.5.51 0 0 0-.465.51.5.51 0 0 0 .5.507.5.51 0 0 0 .5-.507.5.51 0 0 0-.5-.51.5.51 0 0 0-.035 0zm38.732.664v.539a3.254 3.254 0 0 1 2.313.95c.58.582.918 1.363.945 2.183l.54.002a3.795 3.795 0 0 0-1.106-2.567 3.785 3.785 0 0 0-2.692-1.107zm-22.623.926a2.005 2.005 0 0 0-2.049 2.318c.157.967.995 1.68 1.975 1.68a.25.25 0 1 0 0-.5 1.496 1.496 0 0 1-1.48-1.26 1.498 1.498 0 0 1 2.81-.932 1.484 1.484 0 0 1-.353 1.809.098.098 0 0 1-.028-.066v-.106a.25.25 0 0 0 0-.014.25.25 0 0 0 0-.011.25.25 0 0 0 0-.006v-.295a.25.25 0 0 0 0-.026V44.37a.25.25 0 0 0 0-.025v-.291a.25.25 0 0 0-.254-.254.25.25 0 0 0-.24.197 1.127 1.127 0 0 0-1.059 1.832c.274.325.7.455 1.1.37a.597.597 0 0 0 .436.357.25.25 0 0 0 .216.006.25.25 0 0 0 .018-.008.25.25 0 0 0 .006-.004.25.25 0 0 0 .002-.002.25.25 0 0 0 .014-.008.25.25 0 0 0 .06-.053c.74-.594.967-1.634.525-2.482a2.004 2.004 0 0 0-1.699-1.074zm22.625.152.002.537a2.162 2.162 0 0 1 2.178 2.053l.539.002a2.712 2.712 0 0 0-.79-1.803 2.706 2.706 0 0 0-1.929-.789zm.004 1.01v.539a1.081 1.081 0 0 1 1.037 1.039l.54.002a1.619 1.619 0 0 0-1.577-1.58zm-22.553.394c.1-.017.2 0 .3.032v1.011a.25.25 0 0 0 0 .018v.142a.617.617 0 0 1-.67-.183.623.623 0 0 1 0-.805.624.624 0 0 1 .37-.215zm22.635.702a.405.403 45 0 0-.29.117.405.403 45 0 0 .001.572.405.403 45 0 0 .572.002.405.403 45 0 0-.002-.572.405.403 45 0 0-.28-.12zm-35.308 6.841h18.9v.828c0 .996.798 1.827 1.787 1.827h6.428c.99 0 1.785-.831 1.785-1.827v-.828h18.9C58.021 54.264 56.213 56 53.904 56H14.85c-2.31 0-4.117-1.736-4.373-3.97zm19.9 0h8v.828c0 .476-.35.827-.785.827h-6.428c-.435 0-.787-.351-.787-.827v-.828z" color="#000" font-family="sans-serif" font-weight="400" overflow="visible" style="line-height:normal;text-indent:0;text-align:start;text-decoration-line:none;text-decoration-style:solid;text-decoration-color:#000;text-transform:none;block-progression:tb;white-space:normal;isolation:auto;mix-blend-mode:normal;solid-color:#000;solid-opacity:1"></path></svg>