<svg xmlns="http://www.w3.org/2000/svg" data-name="Layer 1" viewBox="0 0 64 64" id="employee-data-analysis"><path d="M50.86,23.7A11,11,0,1,0,48.05,39,10.93,10.93,0,0,0,50.86,23.7ZM47,37.38a9,9,0,1,1-5.15-16.5,9.21,9.21,0,0,1,1.65.15A9.05,9.05,0,0,1,47,37.38Z"></path><path d="M63.23,52.63l0,0-8-10.92a1,1,0,0,0-1.33-.22l-.2.14-1.07-1.55a14.81,14.81,0,0,0-6.8-24.39V2.34a1,1,0,0,0-1-1H1a1,1,0,0,0-1,1V61.66a1,1,0,0,0,1,1H44.84a1,1,0,0,0,1-1V44.19a15.67,15.67,0,0,0,1.63-.56l1.07,1.54-.21.14a1,1,0,0,0-.4.64,1,1,0,0,0,.17.73l8,10.9a4.35,4.35,0,0,0,3.57,1.89A4.27,4.27,0,0,0,62,58.74a5.12,5.12,0,0,0,.52-.4A4.32,4.32,0,0,0,63.23,52.63ZM43.87,60.69H1.94V3.31H43.87v12A14.78,14.78,0,0,0,27,30.2H5.57a1,1,0,0,0,0,1.94H27.18a14.47,14.47,0,0,0,1,3.53H5.57a1,1,0,0,0,0,1.94h23.6c.15.24.29.49.45.72a15.11,15.11,0,0,0,2.53,2.81H5.57a1,1,0,0,0,0,1.94H35a14.66,14.66,0,0,0,4.15,1.42,15.51,15.51,0,0,0,2.71.24,15.24,15.24,0,0,0,2-.14Zm-4.38-18.1a12.87,12.87,0,0,1,2.3-25.53,13.33,13.33,0,0,1,2.35.21,12.87,12.87,0,1,1-4.65,25.32Zm9.71.17c.35-.2.69-.41,1-.64s.65-.47,1-.73l.9,1.32-2,1.36ZM61.26,56.88a4,4,0,0,1-.39.29,2.37,2.37,0,0,1-3.23-.71L50.23,46.34l.17-.12h0L54.2,43.6l7.44,10.14A2.39,2.39,0,0,1,61.26,56.88Z"></path><path d="M20.55 10.32H32.83a1 1 0 0 0 0-1.94H20.55a1 1 0 0 0 0 1.94zM20.55 15.17H32.83a1 1 0 1 0 0-1.94H20.55a1 1 0 0 0 0 1.94zM5.58 22.44H17.19a1 1 0 0 0 1-.9c0-.12 0-.25 0-.39a6.55 6.55 0 0 0-6.79-6.27A6.54 6.54 0 0 0 4.6 21.15c0 .13 0 .26 0 .39A1 1 0 0 0 5.58 22.44zm5.8-5.62a4.72 4.72 0 0 1 4.8 3.69H6.59A4.72 4.72 0 0 1 11.38 16.82zM11.38 14.65a3.54 3.54 0 1 0-3.53-3.54A3.55 3.55 0 0 0 11.38 14.65zm0-5.13a1.6 1.6 0 1 1-1.59 1.59A1.6 1.6 0 0 1 11.38 9.52zM5.57 27.29H17.2a1 1 0 1 0 0-1.94H5.57a1 1 0 0 0 0 1.94zM17.49 49.6H6.82a1 1 0 0 0-1 1v4.85a1 1 0 0 0 1 1H17.49a1 1 0 0 0 1-1V50.57A1 1 0 0 0 17.49 49.6zm-1 4.85H7.78V51.54h8.74zM35.6 48.63A4.37 4.37 0 1 0 40 53 4.37 4.37 0 0 0 35.6 48.63zm0 6.79A2.43 2.43 0 1 1 38 53 2.43 2.43 0 0 1 35.6 55.42z"></path></svg>