<svg xmlns="http://www.w3.org/2000/svg" data-name="Layer 1" viewBox="0 0 512 512" id="light-bulb"><g data-name="<Group>"><path d="M155.567,324.226c21.1,21,31.314,50.576,27.31,79.107a7.524,7.524,0,0,0,1.9,6.151A7.8,7.8,0,0,0,190.8,412h.032l60.7-.023a8.037,8.037,0,0,0,3.47.912,7.923,7.923,0,0,0,3.529-.773l61.07-.219a7.978,7.978,0,0,0,7.893-9.073c-4-28.988,5.629-55.985,27.852-78.079.026-.025.051-.049.076-.075,24.44-24.961,37.9-57.081,37.9-90.445,0-34.283-13.776-66.742-38.788-91.4-26.709-26.328-62.52-40.536-100.841-39.971a140.065,140.065,0,0,0-94.5,38.832c-25.9,24.61-40.483,56.686-41.051,90.31A127.316,127.316,0,0,0,155.567,324.226Zm-21.426-91.947c.5-29.307,13.307-57.36,36.074-78.989a124.1,124.1,0,0,1,83.713-34.435q.959-.014,1.913-.014c33.274,0,64.269,12.523,87.459,35.382,21.938,21.625,34.02,50.037,34.02,80,0,29.138-11.823,57.267-33.3,79.215-23.233,23.116-34.846,52.122-33.247,82.519L263,396.153v-143.4c.95,1.173,1.98,2.6,3.187,4.33,4.542,6.508,10.763,15.421,23.311,15.421s18.769-8.913,23.311-15.421c4.255-6.1,6.368-8.579,10.191-8.579a8,8,0,0,0,0-16c-12.548,0-18.769,8.913-23.311,15.421-4.255,6.1-6.368,8.579-10.191,8.579s-5.936-2.483-10.191-8.579C274.765,241.413,268.544,232.5,256,232.5s-18.767,8.914-23.309,15.422c-4.254,6.1-6.367,8.578-10.188,8.578s-5.936-2.483-10.189-8.579C207.768,241.413,201.547,232.5,189,232.5a8,8,0,0,0,0,16c3.822,0,5.935,2.482,10.188,8.578,4.542,6.508,10.763,15.422,23.311,15.422s18.767-8.913,23.309-15.421c.419-.6.811-1.155,1.192-1.686V396.218l-47.4.191c1.558-30.555-10.326-61.216-32.749-83.532A111.253,111.253,0,0,1,134.141,232.279Z" data-name="<Compound Path>"></path><path d="M253 74.514a8 8 0 0 0 8-8V15.5a8 8 0 0 0-16 0V66.514A8 8 0 0 0 253 74.514zM384.77 134.171a7.971 7.971 0 0 0 5.34-2.046l39.452-35.4a8 8 0 1 0-10.686-11.91l-39.452 35.4a8 8 0 0 0 5.346 13.955zM120.037 127.246a8 8 0 0 0 11.1-11.52L93.333 79.288a8 8 0 1 0-11.1 11.52z" data-name="<Path>"></path><path d="M322,437a8,8,0,0,0-8-8H198a8,8,0,0,0-8,8v60a8,8,0,0,0,8,8H314a8,8,0,0,0,8-8Zm-16,52H206V445H306Z" data-name="<Compound Path>"></path></g></svg>