<svg xmlns="http://www.w3.org/2000/svg" width="655.359" height="655.359" fill-rule="evenodd" clip-rule="evenodd" image-rendering="optimizeQuality" shape-rendering="geometricPrecision" text-rendering="geometricPrecision" viewBox="0 0 6.827 6.827" id="mockup"><path d="M1.72744 4.30725c-.00601575 0-.0121339-.000732283-.0182165-.00243701-.0374685-.01-.0597087-.0485276-.0496614-.0859528l.261386-.975484c.0100472-.0375512.0485354-.0597402.0860157-.0497402.0374646.0101142.0597008.0485236.0496535.0860748l-.261394.975476c-.00840157.0314567-.0367795.052063-.0677835.052063zM1.51833 4.2775c-.0119134 0-.0239843-.00304724-.0350472-.00938976l-.793272-.458051c-.0217283-.0125591-.0351102-.0357244-.0351102-.0608386 0-.0249961.0133819-.0482795.0351102-.0608386l.793272-.457933c.0335748-.0193819.0765394-.00792126.0959331.0257283.0193976.0335276.00787402.0765669-.0257087.0959528l-.687929.397091.687929.397217c.0335827.0193819.0451063.0622953.0257087.0959488-.0130079.0225551-.0366142.0351142-.0608858.0351142zM2.19784 4.2775c-.0242638 0-.0478661-.0125591-.060878-.0351142-.0193937-.0336535-.00788583-.0765669.0257008-.0959488l.687933-.397217-.687933-.397094c-.0335866-.0193819-.0450945-.0624213-.0257008-.0959488.0193898-.0336496.0623268-.0451102.0959291-.0257244l.793268.457929c.0217283.0125591.0351142.0358465.0351142.0608386 0 .0251142-.0133898.0482835-.0351142.0608386l-.793268.458051c-.0110551.00633858-.0231417.00938976-.0350512.00938976zM5.93815 1.51443l-4.91711 0c-.0387835 0-.0702244-.0314528-.0702244-.0702205 0-.0387717.0314409-.0702283.0702244-.0702283l4.91711 0c.0387795 0 .0702244.0314567.0702244.0702283 0 .0387638-.0314449.0702244-.0702244.0702205zM1.8975 1.20183l-.313075 0c-.0517165 0-.0936378-.0419409-.0936378-.0936339 0-.0516969.0419213-.0936339.0936378-.0936339l.313075-.00000393701c.0517165 0 .0936339.0419409.0936339.0936378 0 .051689-.0419173.0936339-.0936339.0936339zM2.53191 1.20183l-.313079 0c-.0517165 0-.0936457-.0419409-.0936457-.0936339 0-.0516969.0419291-.0936339.0936457-.0936339l.313079-.00000393701c.0517165 0 .0936339.0419409.0936339.0936378 0 .051689-.0419173.0936339-.0936339.0936339zM3.16632 1.20183l-.313075 0c-.0517087 0-.0936378-.0419409-.0936378-.0936339 0-.0516969.0419291-.0936339.0936339-.0936339l.313079-.00000393701c.0517165 0 .0936457.0419409.0936457.0936378 0 .051689-.0419291.0936339-.0936457.0936339z"></path><path d="M1.02104 2.94882c-0.0387835,0 -0.0702323,-0.0314567 -0.0702323,-0.0702283l3.93701e-006 -1.86196c0,-0.173492 0.14113,-0.314551 0.314594,-0.314551l4.42838 0c0.173469,0 0.314602,0.141059 0.314602,0.314551l0 0.956709c0,0.0387638 -0.0314449,0.0702244 -0.0702244,0.0702244 -0.0387953,0 -0.0702283,-0.0314567 -0.0702283,-0.0702244l0 -0.956709c0,-0.0959488 -0.078126,-0.174098 -0.17415,-0.174098l-4.42838 0c-0.0960236,0 -0.174146,0.0781496 -0.174146,0.174098l3.93701e-006 1.86196c0,0.0387717 -0.0314409,0.0702283 -0.0702244,0.0702283zm4.91712 1.3644c-0.0387953,0 -0.0702283,-0.0314567 -0.0702283,-0.0702244l0 -0.987429c0,-0.0387677 0.0314291,-0.0702244 0.0702283,-0.0702244 0.0387835,0 0.0702244,0.0314567 0.0702244,0.0702244l0 0.987429c0,0.0387677 -0.0314449,0.0702244 -0.0702244,0.0702244zm-0.244378 1.81136l-4.42838 0c-0.173465,0 -0.314598,-0.141185 -0.314598,-0.314673l3.93701e-006 -1.18994c0,-0.0387677 0.0314449,-0.0702244 0.0702283,-0.0702244 0.0387835,0 0.0702205,0.0314567 0.0702205,0.0702244l3.93701e-006 1.18994c0,0.0960669 0.0781181,0.17422 0.174142,0.17422l4.42838 0c0.0960236,0 0.17415,-0.0781535 0.17415,-0.17422l0 -0.284685c0,-0.0388937 0.0314291,-0.0702244 0.0702283,-0.0702244 0.0387835,0 0.0702244,0.0313307 0.0702244,0.0702244l0 0.284685c0,0.173488 -0.141134,0.314673 -0.314602,0.314673z"></path><path d="M.487114 4.54974l2.74196 0 0-1.60105-2.74196 0 0 1.60105zm2.81218.140449l-2.8824 0c-.0387874 0-.0702283-.0314528-.0702283-.0702244l0-1.74138c0-.0388937.0314409-.0702244.0702283-.0702244l2.8824 0c.0387835 0 .0702283.0313307.0702283.0702244l0 1.74138c0 .0387717-.0314449.0702244-.0702283.0702244zM4.35774 3.18534l1.98181 0 0-1.14178-1.98181 0 0 1.14178zm2.05204.140453l-2.12227 0c-.0387795 0-.0702126-.0314567-.0702126-.0702283l0-1.28222c0-.0387795.0314291-.0702283.0702126-.0702283l2.12227 0c.0387835 0 .0702087.0314528.0702087.0702283l0 1.28222c0 .0387717-.0314291.0702283-.0702087.0702283zM4.35775 5.455l1.98181 0 0-1.14178-1.98181 0 0 1.14178zm2.05204.140449l-2.12226 0c-.0387795 0-.0702244-.0314528-.0702244-.0702244l0-1.28223c0-.0387717.0314409-.0702244.0702244-.0702244l2.12226-.00000393701c.0387835 0 .0702087.0314606.0702087.0702283l0 1.28223c0 .0387717-.0314291.0702244-.0702087.0702244z"></path><path d="M6.10777 2.43139l-1.51823 0c-.0387795 0-.0702165-.0314488-.0702165-.0702205.00000393701-.0387717.0314331-.0702244.0702165-.0702244l1.51823-.00000393701c.0387835 0 .0702126.0314567.0702126.0702283 0 .0387677-.0314331.0702244-.0702126.0702205zM6.10777 2.93796l-1.51823 0c-.0387795 0-.0702165-.0314567-.0702165-.0702244.00000393701-.0387717.0314331-.0702244.0702165-.0702244l1.51823 0c.0387835 0 .0702126.0314567.0702126.0702244 0 .0387677-.0314331.0702244-.0702126.0702244zM6.10777 4.70105l-1.51823 0c-.0387795 0-.0702165-.0314528-.0702165-.0702283.00000393701-.0388937.0314331-.0702244.0702165-.0702244l1.51823 0c.0387835 0 .0702126.0313307.0702126.0702244 0 .0387717-.0314331.0702323-.0702126.0702283zM6.10777 5.20762l-1.51823 0c-.0387795 0-.0702165-.0314528-.0702165-.0702205.00000393701-.0387756.0314331-.0702283.0702165-.0702283l1.51823 0c.0387835 0 .0702126.0314528.0702126.0702283 0 .0387677-.0314331.0702205-.0702126.0702205z"></path><rect width="6.827" height="6.827" fill="none"></rect></svg>