<svg xmlns="http://www.w3.org/2000/svg" viewBox="0 0 512 512" id="process"><path d="M438.612 424.035c-47.588 56.877-117.061 87.925-188.298 87.925-29.509 0-59.307-5.322-88-16.341-40.736-15.644-76.078-41.441-103.14-75.109l.296 18.354a8 8 0 0 1-7.87 8.128l-.131.001a8 8 0 0 1-7.997-7.871l-.707-43.804a8.001 8.001 0 0 1 9.791-7.926l42.696 9.812a8.001 8.001 0 0 1-3.584 15.594l-22.245-5.113c25.566 32.837 59.426 57.942 98.626 72.997 91.578 35.171 195.377 8.28 258.291-66.915a8 8 0 0 1 12.272 10.268zM105.938 88.116c32.639-26.421 71.31-43.192 112.53-48.914l-15.55 16.708a8.001 8.001 0 0 0 11.712 10.901l29.846-32.07a7.998 7.998 0 0 0-1.969-12.442l-38.289-21.29a8 8 0 0 0-7.775 13.983l16.044 8.921c-42.688 6.602-82.7 24.311-116.618 51.768-81.56 66.025-112.165 176.569-76.155 275.073a8.001 8.001 0 0 0 10.26 4.767 8 8 0 0 0 4.767-10.26C1.079 253.178 29.69 149.84 105.938 88.116zm400.076 260.187a8 8 0 0 0-10.974-2.751l-15.748 9.434c15.627-40.27 20.297-83.777 13.477-126.877-16.399-103.647-96.83-185.424-200.144-203.49a7.996 7.996 0 0 0-9.258 6.502 8 8 0 0 0 6.502 9.258c96.578 16.889 171.766 93.336 187.096 190.23 6.563 41.476 1.751 83.352-13.903 121.91l-6.695-21.82a7.997 7.997 0 0 0-9.995-5.301 8 8 0 0 0-5.301 9.995l12.851 41.882a8 8 0 0 0 11.76 4.517l37.582-22.514a8.001 8.001 0 0 0 2.75-10.975zM224.316 193.154c0 25.785-20.978 46.763-46.763 46.763s-46.763-20.978-46.763-46.763 20.978-46.763 46.763-46.763 46.763 20.978 46.763 46.763zm-16 0c0-16.962-13.8-30.763-30.763-30.763-16.962 0-30.763 13.8-30.763 30.763s13.8 30.763 30.763 30.763 30.763-13.8 30.763-30.763zm34.238-83.551 18.551 18.551a8 8 0 0 1 .823 10.348l-13.821 19.088a78.404 78.404 0 0 1 4.488 10.824l23.265 3.724a8 8 0 0 1 6.736 7.899v26.235a8 8 0 0 1-6.735 7.899l-23.263 3.724a78.585 78.585 0 0 1-4.489 10.824l13.82 19.088a8 8 0 0 1-.823 10.348l-18.551 18.551a8 8 0 0 1-10.349.823l-19.087-13.821a78.456 78.456 0 0 1-10.824 4.488l-3.724 23.265a8 8 0 0 1-7.899 6.735h-26.234a7.999 7.999 0 0 1-7.899-6.735l-3.724-23.263a78.636 78.636 0 0 1-10.824-4.489l-19.088 13.82a8 8 0 0 1-10.348-.823l-18.551-18.551a8 8 0 0 1-.823-10.348l13.82-19.088a78.652 78.652 0 0 1-4.488-10.824l-23.264-3.724a8 8 0 0 1-6.736-7.899v-26.235a8 8 0 0 1 6.735-7.899l23.265-3.724a78.58 78.58 0 0 1 4.488-10.824l-13.82-19.088a8 8 0 0 1 .823-10.348l18.551-18.551a7.998 7.998 0 0 1 10.348-.823l19.086 13.819a78.558 78.558 0 0 1 10.826-4.489l3.724-23.263a8 8 0 0 1 7.899-6.735h26.234a8 8 0 0 1 7.899 6.735l3.724 23.263a78.648 78.648 0 0 1 10.825 4.489l19.087-13.82a8 8 0 0 1 10.347.824zm-10.372 42.699 12.786-17.659-8.904-8.904-17.658 12.785a7.999 7.999 0 0 1-8.772.401 62.603 62.603 0 0 0-16.422-6.811 7.998 7.998 0 0 1-5.917-6.486l-3.444-21.518h-12.592l-3.445 21.518a8 8 0 0 1-5.917 6.486 62.57 62.57 0 0 0-16.423 6.81 7.997 7.997 0 0 1-8.772-.401l-17.657-12.785-8.904 8.904 12.785 17.658a7.999 7.999 0 0 1 .401 8.771 62.623 62.623 0 0 0-6.809 16.422 7.998 7.998 0 0 1-6.486 5.917l-21.52 3.445v12.592l21.519 3.444a8 8 0 0 1 6.486 5.917 62.59 62.59 0 0 0 6.81 16.422 8 8 0 0 1-.401 8.772l-12.786 17.659 8.904 8.904 17.658-12.785a8 8 0 0 1 8.772-.401 62.631 62.631 0 0 0 16.422 6.811 8 8 0 0 1 5.917 6.486l3.445 21.517h12.592l3.444-21.519a8.002 8.002 0 0 1 5.917-6.486 62.638 62.638 0 0 0 16.423-6.81 7.997 7.997 0 0 1 8.772.401l17.658 12.786 8.904-8.904-12.785-17.658a8 8 0 0 1-.401-8.772 62.631 62.631 0 0 0 6.811-16.422 7.998 7.998 0 0 1 6.486-5.917l21.518-3.444v-12.592l-21.519-3.444a8 8 0 0 1-6.486-5.917 62.55 62.55 0 0 0-6.81-16.422 7.997 7.997 0 0 1 .4-8.771zm163.614 144.655-11.774 16.262a69.956 69.956 0 0 1 3.536 8.525l19.82 3.172a8 8 0 0 1 6.735 7.899v23.013a8 8 0 0 1-6.735 7.899l-19.819 3.172a69.627 69.627 0 0 1-3.536 8.526l11.774 16.262a8 8 0 0 1-.823 10.348L378.7 418.31a8 8 0 0 1-10.348.823l-16.262-11.774a69.857 69.857 0 0 1-8.525 3.535l-3.173 19.821a7.999 7.999 0 0 1-7.899 6.735H309.48a8 8 0 0 1-7.899-6.735l-3.172-19.819a69.785 69.785 0 0 1-8.526-3.536l-16.262 11.774a8 8 0 0 1-10.348-.823L247 402.038a8 8 0 0 1-.823-10.348l11.774-16.263a69.91 69.91 0 0 1-3.535-8.524l-19.821-3.173a8 8 0 0 1-6.735-7.899v-23.013a8 8 0 0 1 6.735-7.899l19.82-3.173a69.923 69.923 0 0 1 3.535-8.525l-11.774-16.262a8 8 0 0 1 .823-10.348l16.273-16.273a7.998 7.998 0 0 1 10.348-.823l16.261 11.773a69.943 69.943 0 0 1 8.526-3.536l3.172-19.819a8 8 0 0 1 7.899-6.735h23.013a8 8 0 0 1 7.899 6.735l3.172 19.819a69.627 69.627 0 0 1 8.526 3.536l16.261-11.774a8 8 0 0 1 10.348.823l16.273 16.273a7.994 7.994 0 0 1 .826 10.347zm-15.733 39.791a8 8 0 0 1-6.485-5.916 53.914 53.914 0 0 0-5.868-14.149 8 8 0 0 1 .401-8.772l10.725-14.812-6.626-6.626-14.812 10.724a8 8 0 0 1-8.772.401 53.912 53.912 0 0 0-14.148-5.868 8 8 0 0 1-5.917-6.486l-2.889-18.048H316.3l-2.889 18.048a8 8 0 0 1-5.918 6.486 53.901 53.901 0 0 0-14.148 5.867 8 8 0 0 1-8.772-.401l-14.811-10.724-6.626 6.626 10.724 14.812a7.999 7.999 0 0 1 .401 8.771 53.92 53.92 0 0 0-5.866 14.149 8 8 0 0 1-6.486 5.917l-18.05 2.89v9.371l18.049 2.889a8 8 0 0 1 6.485 5.916 53.962 53.962 0 0 0 5.868 14.15 8 8 0 0 1-.401 8.771l-10.725 14.812 6.626 6.626 14.812-10.724a8 8 0 0 1 8.772-.401 53.915 53.915 0 0 0 14.148 5.867 8 8 0 0 1 5.918 6.486l2.889 18.049h9.371l2.89-18.05a8.002 8.002 0 0 1 5.917-6.486 53.878 53.878 0 0 0 14.147-5.867 7.997 7.997 0 0 1 8.772.401l14.812 10.725 6.626-6.626-10.724-14.812a8 8 0 0 1-.401-8.772 53.892 53.892 0 0 0 5.868-14.147 8 8 0 0 1 6.486-5.917l18.048-2.889v-9.371l-18.049-2.89zm-17.074 7.574c0 23.161-18.843 42.003-42.003 42.003s-42.003-18.843-42.003-42.003 18.843-42.003 42.003-42.003 42.003 18.843 42.003 42.003zm-16 0c0-14.338-11.665-26.003-26.003-26.003s-26.003 11.665-26.003 26.003 11.665 26.003 26.003 26.003 26.003-11.664 26.003-26.003z"></path></svg>