<svg xmlns="http://www.w3.org/2000/svg" viewBox="0 0 80 80" id="security"><path  fill-rule="evenodd" d="M679.721 142.08a4.512 4.512 0 0 0-4.551-4.42 4.618 4.618 0 0 0-2.655.86 15.545 15.545 0 0 1-8.8 2.5c-4.372-.02-10.08-1.64-11.777-6.24a7.03 7.03 0 0 0-6.527-4.78h-11.2a7.055 7.055 0 0 0-6.547 4.78c-1.7 4.6-7.406 6.24-11.778 6.24a15.6 15.6 0 0 1-8.8-2.5 4.613 4.613 0 0 0-2.654-.86 4.512 4.512 0 0 0-4.552 4.42c-.878 39.94 12.436 62.78 39.564 67.9a2.168 2.168 0 0 0 .359.02 2.55 2.55 0 0 0 .38-.02 45.282 45.282 0 0 0 18.344-7.6 17.373 17.373 0 0 0 3.234.3 18.009 18.009 0 0 0 17.965-18 17.824 17.824 0 0 0-3.293-10.36q3.708-13.62 3.288-32.24zm-16.687 56.52a8.961 8.961 0 0 1-1.278.08 13.364 13.364 0 0 1-4.212-.66 13.825 13.825 0 0 1-8.384-7.34 12.571 12.571 0 0 1-1.2-3.92 12 12 0 0 1-.18-2.08 14.026 14.026 0 0 1 9.8-13.36h.02a13.654 13.654 0 0 1 4.152-.64h.18a13.92 13.92 0 0 1 10.06 4.5 13.414 13.414 0 0 1 2.775 4.46 13.633 13.633 0 0 1 .958 5.04 13.975 13.975 0 0 1-12.691 13.92zm10.14-27.8a17.907 17.907 0 0 0-10.3-4.08 75.064 75.064 0 0 0 1.317-8.54 1.88 1.88 0 0 0-.479-1.5 1.946 1.946 0 0 0-1.417-.7c-8.6-.36-16.229-3.94-20.94-9.84a2.044 2.044 0 0 0-3.114 0c-4.711 5.9-12.336 9.48-20.939 9.84a2 2 0 0 0 .159 4c8.883-.36 16.888-3.82 22.337-9.56a31.905 31.905 0 0 0 20.2 9.4 69.352 69.352 0 0 1-1.237 7.1 18.024 18.024 0 0 0-14.971 17.76 18.287 18.287 0 0 0 .519 4.34 16.969 16.969 0 0 0 1.377 3.68 17.967 17.967 0 0 0 7.985 8.04 41.778 41.778 0 0 1-13.874 5.24c-24.652-4.84-36.749-26.3-35.93-63.8a.555.555 0 0 1 .9-.4 19.352 19.352 0 0 0 11.118 3.24c7.446 0 13.534-3.48 15.53-8.86a3.083 3.083 0 0 1 2.795-2.16h11.2a3.078 3.078 0 0 1 2.774 2.16 12.436 12.436 0 0 0 5.729 6.44 19.765 19.765 0 0 0 9.8 2.42 19.356 19.356 0 0 0 11.119-3.24.538.538 0 0 1 .339-.12.546.546 0 0 1 .559.52 114.194 114.194 0 0 1-2.556 28.62zm-27.487 21.9a26.681 26.681 0 0 1-5.41 1.92 1.942 1.942 0 0 1-.958 0c-11.657-2.84-18.983-11.66-22.417-26.96a1.993 1.993 0 1 1 3.893-.86c4.371 19.48 14.911 22.8 19 23.82a22.216 22.216 0 0 0 4.512-1.6 16.969 16.969 0 0 0 1.38 3.68zm13.815-.229a2 2 0 0 1-1.412-.586l-5.728-5.739a2 2 0 0 1 2.823-2.828l4.317 4.325 8.829-8.848a2 2 0 1 1 2.823 2.828l-10.241 10.262a1.994 1.994 0 0 1-1.413.586z" transform="translate(-599.844 -130)"></path></svg>