<svg xmlns="http://www.w3.org/2000/svg" enable-background="new 0 0 512 512" viewBox="0 0 512 512" id="server"><path d="M452.238,0.001H59.762c-16.966,0-30.769,13.802-30.769,30.766v55.281c0,16.969,13.802,30.771,30.769,30.771h18.995v28.63H59.762c-16.966,0-30.769,13.802-30.769,30.766v55.281c0,16.969,13.802,30.771,30.769,30.771h18.995v28.625H59.762c-16.966,0-30.769,13.802-30.769,30.771v55.281c0,16.969,13.802,30.771,30.769,30.771h190.906v43.327c-12.688,2.223-22.704,12.206-24.94,24.855H42.762c-2.945,0-5.334,2.386-5.334,5.334s2.388,5.334,5.334,5.334h182.962c2.537,14.43,15.129,25.438,30.274,25.438c15.102,0,27.662-11.007,30.192-25.438h183.048c2.945,0,5.334-2.386,5.334-5.334s-2.388-5.334-5.334-5.334H286.188c-2.23-12.643-12.209-22.623-24.853-24.853v-43.329h190.903c16.966,0,30.769-13.803,30.769-30.771v-55.281c0-16.969-13.803-30.771-30.769-30.771h-18.995v-28.625h18.995c16.966,0,30.769-13.802,30.769-30.771v-55.281c0-16.963-13.803-30.766-30.769-30.766h-18.995v-28.63h18.995c16.966,0,30.769-13.802,30.769-30.771V30.767C483.006,13.803,469.204,0.001,452.238,0.001z M276.017,481.228c0,11.083-8.979,20.104-20.018,20.104c-11.083,0-20.101-9.021-20.101-20.104c0-11.036,9.018-20.016,20.101-20.016C267.038,461.214,276.017,470.192,276.017,481.228z M452.238,301.557c11.083,0,20.101,9.021,20.101,20.104v55.281c0,11.083-9.018,20.104-20.101,20.104H59.762c-11.083,0-20.101-9.021-20.101-20.104v-55.281c0-11.083,9.018-20.104,20.101-20.104C149.973,301.557,368.313,301.557,452.238,301.557z M89.424,290.891v-28.625h333.153v28.625L89.424,290.891L89.424,290.891z M452.238,156.115c11.083,0,20.101,9.015,20.101,20.099v55.281c0,11.083-9.018,20.104-20.101,20.104c-84.028,0-302.202,0-392.476,0c-11.083,0-20.101-9.021-20.101-20.104v-55.281c0-11.083,9.018-20.099,20.101-20.099C143.79,156.115,361.964,156.115,452.238,156.115z M89.424,145.448v-28.63h333.153v28.63H89.424z M472.339,86.047c0,11.083-9.018,20.104-20.101,20.104c-84.028,0-302.202,0-392.476,0c-11.083,0-20.101-9.021-20.101-20.104v-55.28c0-11.083,9.018-20.099,20.101-20.099h392.476c11.083,0,20.101,9.015,20.101,20.099V86.047z"></path><path d="M200.405 36.964c-11.823 0-21.44 9.619-21.44 21.443s9.617 21.443 21.44 21.443c11.825 0 21.446-9.619 21.446-21.443S212.23 36.964 200.405 36.964zM200.405 69.182c-5.94 0-10.773-4.833-10.773-10.776s4.833-10.776 10.773-10.776c5.943 0 10.778 4.833 10.778 10.776C211.183 64.349 206.348 69.182 200.405 69.182zM84.504 36.964c-11.823 0-21.443 9.619-21.443 21.443s9.619 21.443 21.443 21.443 21.443-9.619 21.443-21.443S96.328 36.964 84.504 36.964zM84.504 69.182c-5.943 0-10.776-4.833-10.776-10.776S78.561 47.63 84.504 47.63c5.943 0 10.776 4.833 10.776 10.776C95.28 64.349 90.447 69.182 84.504 69.182zM142.413 36.964c-11.823 0-21.443 9.619-21.443 21.443s9.619 21.443 21.443 21.443c11.823 0 21.443-9.619 21.443-21.443S154.236 36.964 142.413 36.964zM142.413 69.182c-5.943 0-10.776-4.833-10.776-10.776s4.833-10.776 10.776-10.776 10.776 4.833 10.776 10.776C153.189 64.349 148.356 69.182 142.413 69.182zM427.707 37.136H323.634c-11.708 0-21.231 9.521-21.231 21.229S311.925 79.6 323.634 79.6h104.072c11.708 0 21.231-9.526 21.231-21.234S439.415 37.136 427.707 37.136zM427.707 68.933H323.634c-5.825 0-10.565-4.74-10.565-10.568 0-5.823 4.74-10.563 10.565-10.563h104.072c5.825 0 10.565 4.74 10.565 10.563C438.272 64.193 433.532 68.933 427.707 68.933zM200.405 182.417c-11.823 0-21.44 9.619-21.44 21.443s9.617 21.443 21.44 21.443c11.825 0 21.446-9.619 21.446-21.443S212.23 182.417 200.405 182.417zM200.405 214.636c-5.94 0-10.773-4.833-10.773-10.776s4.833-10.776 10.773-10.776c5.943 0 10.778 4.833 10.778 10.776S206.348 214.636 200.405 214.636zM84.504 182.417c-11.823 0-21.443 9.619-21.443 21.443s9.619 21.443 21.443 21.443 21.443-9.619 21.443-21.443S96.328 182.417 84.504 182.417zM84.504 214.636c-5.943 0-10.776-4.833-10.776-10.776s4.833-10.776 10.776-10.776c5.943 0 10.776 4.833 10.776 10.776S90.447 214.636 84.504 214.636zM142.413 182.417c-11.823 0-21.443 9.619-21.443 21.443s9.619 21.443 21.443 21.443c11.823 0 21.443-9.619 21.443-21.443S154.236 182.417 142.413 182.417zM142.413 214.636c-5.943 0-10.776-4.833-10.776-10.776s4.833-10.776 10.776-10.776 10.776 4.833 10.776 10.776S148.356 214.636 142.413 214.636zM323.634 182.584c-11.708 0-21.231 9.526-21.231 21.234 0 11.708 9.523 21.229 21.231 21.229h104.072c11.708 0 21.231-9.521 21.231-21.229 0-11.708-9.523-21.234-21.231-21.234L323.634 182.584 323.634 182.584zM438.272 203.818c0 5.823-4.74 10.563-10.565 10.563H323.634c-5.825 0-10.565-4.74-10.565-10.563 0-5.828 4.74-10.568 10.565-10.568h104.072C433.532 193.25 438.272 197.99 438.272 203.818zM200.405 327.865c-11.823 0-21.44 9.619-21.44 21.443 0 11.823 9.617 21.443 21.44 21.443 11.825 0 21.446-9.619 21.446-21.443C221.851 337.484 212.23 327.865 200.405 327.865zM200.405 360.083c-5.94 0-10.773-4.833-10.773-10.776s4.833-10.776 10.773-10.776c5.943 0 10.778 4.833 10.778 10.776C211.184 355.249 206.348 360.083 200.405 360.083zM84.504 327.865c-11.823 0-21.443 9.619-21.443 21.443 0 11.823 9.619 21.443 21.443 21.443s21.443-9.619 21.443-21.443C105.947 337.484 96.328 327.865 84.504 327.865zM84.504 360.083c-5.943 0-10.776-4.833-10.776-10.776s4.833-10.776 10.776-10.776c5.943 0 10.776 4.833 10.776 10.776C95.28 355.249 90.447 360.083 84.504 360.083zM142.413 327.865c-11.823 0-21.443 9.619-21.443 21.443 0 11.823 9.619 21.443 21.443 21.443 11.823 0 21.443-9.619 21.443-21.443C163.856 337.484 154.236 327.865 142.413 327.865zM142.413 360.083c-5.943 0-10.776-4.833-10.776-10.776s4.833-10.776 10.776-10.776 10.776 4.833 10.776 10.776C153.189 355.249 148.356 360.083 142.413 360.083zM323.634 328.031c-11.708 0-21.231 9.526-21.231 21.234s9.523 21.229 21.231 21.229h104.072c11.708 0 21.231-9.521 21.231-21.229s-9.523-21.234-21.231-21.234H323.634zM438.272 349.266c0 5.823-4.74 10.563-10.565 10.563H323.634c-5.825 0-10.565-4.74-10.565-10.563 0-5.828 4.74-10.568 10.565-10.568h104.072C433.532 338.698 438.272 343.437 438.272 349.266z"></path></svg>