<svg xmlns="http://www.w3.org/2000/svg" width="32" height="32" id="service"><path d="M16.096 2.002v.002a2.496 2.496 0 0 0-1.6.5h-.002A2.495 2.495 0 0 0 13.561 5H11.5a.5.5 0 0 0-.492.508L11 5.496V6H6.5v.006L6 6v23.5a.5.5 0 0 0 .5.5h19a.5.5 0 0 0 .5-.5V6.007l-.5-.005V6H21v-.506l-.008.01A.5.5 0 0 0 20.5 5h-2.055a2.493 2.493 0 0 0-2.35-2.998ZM16.059 3A1.495 1.495 0 0 1 17.3 5.244a.5.5 0 0 0 .135.649l.002.002a.5.5 0 0 0 .058.039l.01.004A.5.5 0 0 0 17.75 6H20v.418a.502.502 0 0 0 0 .164v1.836a.502.502 0 0 0 0 .164V9h-8v-.422a.5.5 0 0 0 0-.16v-1.84a.5.5 0 0 0 0-.16V6h2.25a.5.5 0 0 0 .434-.762.5.5 0 0 0-.04-.093 1.496 1.496 0 0 1 .454-1.842 1.5 1.5 0 0 1 .96-.303ZM7 7h4v1H8.5a.5.5 0 0 0-.5.5v19a.5.5 0 0 0 .5.5h11.908a.5.5 0 0 0 .492-.193l2.91-2.909a.5.5 0 0 0 .19-.48V8.5a.5.5 0 0 0-.5-.5H21V7h4v22H7Zm2 2h2v.496a.5.5 0 0 0 .39.488h.014a.5.5 0 0 0 .024 0 .5.5 0 0 0 .066.01H20.5a.5.5 0 0 0 .5-.5V9h2v15.002h-2.5a.5.5 0 0 0-.5.5V27H9Zm4.51 3a.5.5 0 0 0-.344.15l-1.656 1.645-.653-.647c-.472-.489-1.197.24-.705.71l1.004.997a.5.5 0 0 0 .705 0l2.008-1.996a.5.5 0 0 0-.36-.859Zm1.947 0c-.667.034-.616 1.034.05 1h3c.677.01.677-1.01 0-1h-3a.5.5 0 0 0-.05 0zm.012 2c-.667.034-.616 1.034.05 1h5.961c.677.01.677-1.01 0-1h-5.96a.5.5 0 0 0-.051 0zm-1.96 3a.5.5 0 0 0-.343.15l-1.656 1.645-.653-.647c-.472-.489-1.197.24-.705.71l1.004.997a.5.5 0 0 0 .705 0l2.008-1.996a.5.5 0 0 0-.36-.859Zm1.948 0c-.667.034-.616 1.034.05 1h3c.677.01.677-1.01 0-1h-3a.5.5 0 0 0-.05 0zm.012 2c-.667.034-.616 1.034.05 1h5.961c.677.01.677-1.01 0-1h-5.96a.5.5 0 0 0-.051 0zm-1.96 3a.5.5 0 0 0-.343.15l-1.656 1.645-.653-.647c-.472-.489-1.197.24-.705.71l1.004.997a.5.5 0 0 0 .705 0l2.008-1.996a.5.5 0 0 0-.36-.859Zm1.948 0c-.667.034-.616 1.034.05 1h3c.677.01.677-1.01 0-1h-3a.5.5 0 0 0-.05 0zm.012 2c-.667.034-.616 1.034.05 1h2.961c.677.01.677-1.01 0-1h-2.96a.5.5 0 0 0-.051 0zM21 25.002h1.293L21 26.293Z" color="#000" font-family="sans-serif" font-weight="400" overflow="visible" style="line-height:normal;text-indent:0;text-align:start;text-decoration-line:none;text-decoration-style:solid;text-decoration-color:#000;text-transform:none;block-progression:tb;white-space:normal;isolation:auto;mix-blend-mode:normal;solid-color:#000;solid-opacity:1"></path></svg>