<svg xmlns="http://www.w3.org/2000/svg" data-name="Layer 1" viewBox="0 0 64 64" id="solution"><path d="M11.636 29.075a11.905 11.905 0 0 0-6.258 21.06A3.194 3.194 0 0 1 6.5 52.634v4.795A5.608 5.608 0 0 0 12.131 63h1.738a5.608 5.608 0 0 0 5.631-5.571v-4.795a3.304 3.304 0 0 1 1.188-2.553 11.874 11.874 0 0 0 .343-18.015 12.101 12.101 0 0 0-9.395-2.99zM8.5 57.43V57h9v.429a3.48 3.48 0 0 1-.059.571H8.56a3.48 3.48 0 0 1-.059-.571zM12.131 61a3.644 3.644 0 0 1-2.508-1h6.754a3.644 3.644 0 0 1-2.508 1zm7.566-27.444a9.874 9.874 0 0 1-.287 14.986 5.3 5.3 0 0 0-1.91 4.092V55H14v-6a1.002 1.002 0 0 0-.375-.781L9.29 44.752A.771.771 0 0 1 9 44.148v-.377A.772.772 0 0 1 9.771 43h.28a.771.771 0 0 1 .643.344 2.771 2.771 0 0 0 4.612 0 .771.771 0 0 1 .642-.344h.28a.772.772 0 0 1 .772.771v.496a.764.764 0 0 1-.226.545l-2.481 2.481 1.414 1.414 2.48-2.48a2.753 2.753 0 0 0 .813-1.96v-.496A2.774 2.774 0 0 0 16.229 41h-.28a2.767 2.767 0 0 0-2.307 1.234.772.772 0 0 1-1.284 0A2.767 2.767 0 0 0 10.052 41h-.28A2.774 2.774 0 0 0 7 43.771v.377a2.762 2.762 0 0 0 1.04 2.165L12 49.48V55H8.5v-2.366a5.18 5.18 0 0 0-1.855-4.046 9.956 9.956 0 1 1 13.052-15.032zM42 22h-3a4 4 0 0 0-8 0h-3a1 1 0 0 0-1 1v14a1 1 0 0 0 1 1h4a1 1 0 0 0 1-1v-1a2 2 0 0 1 4 0v1a1 1 0 0 0 1 1h4a1 1 0 0 0 1-1v-3a4 4 0 0 0 0-8v-3a1 1 0 0 0-1-1zm3 8a2.002 2.002 0 0 1-2 2h-1a1 1 0 0 0-1 1v3h-2a4 4 0 0 0-8 0h-2V24h3a1 1 0 0 0 1-1v-1a2 2 0 0 1 4 0v1a1 1 0 0 0 1 1h3v3a1 1 0 0 0 1 1h1a2.002 2.002 0 0 1 2 2z"></path><path d="M62 22.186h-1.89a.904.904 0 0 1-.879-.647 23.984 23.984 0 0 0-2.236-5.39.907.907 0 0 1 .162-1.083l1.34-1.34a1 1 0 0 0 0-1.413l-6.81-6.81a1.03 1.03 0 0 0-1.414 0l-1.34 1.34a.906.906 0 0 1-1.08.162 24.043 24.043 0 0 0-5.393-2.237.903.903 0 0 1-.645-.878V2a1 1 0 0 0-1-1h-9.63a1 1 0 0 0-1 1v1.89a.903.903 0 0 1-.646.878 24.055 24.055 0 0 0-5.391 2.237.91.91 0 0 1-1.082-.161l-1.339-1.34a1 1 0 0 0-1.414 0l-6.81 6.809a1 1 0 0 0 0 1.414l1.34 1.34a.908.908 0 0 1 .162 1.081 23.963 23.963 0 0 0-2.236 5.391.904.904 0 0 1-.879.647H10a1 1 0 0 0-1 1V28h2v-3.814h.89a2.91 2.91 0 0 0 2.805-2.112 21.995 21.995 0 0 1 2.051-4.941 2.912 2.912 0 0 0-.489-3.48l-.632-.633 5.395-5.395.632.633a2.909 2.909 0 0 0 3.481.487 22.024 22.024 0 0 1 4.94-2.05 2.909 2.909 0 0 0 2.112-2.805V3h7.63v.89a2.909 2.909 0 0 0 2.11 2.805 22.012 22.012 0 0 1 4.942 2.05 2.911 2.911 0 0 0 3.48-.487l.633-.633 5.396 5.395-.634.632a2.912 2.912 0 0 0-.488 3.48 22.015 22.015 0 0 1 2.05 4.942 2.91 2.91 0 0 0 2.806 2.112H61v7.628h-.89a2.91 2.91 0 0 0-2.805 2.112 21.995 21.995 0 0 1-2.051 4.941 2.912 2.912 0 0 0 .489 3.48l.632.633-5.395 5.395-.632-.633a2.911 2.911 0 0 0-3.481-.487 22.024 22.024 0 0 1-4.94 2.05 2.909 2.909 0 0 0-2.112 2.805V53h-7.63v-.89a2.909 2.909 0 0 0-2.11-2.805 22.012 22.012 0 0 1-4.942-2.05l-.985 1.74a24.043 24.043 0 0 0 5.392 2.237.903.903 0 0 1 .645.878V54a1 1 0 0 0 1 1h9.63a1 1 0 0 0 1-1v-1.89a.903.903 0 0 1 .646-.878 24.055 24.055 0 0 0 5.391-2.237.907.907 0 0 1 1.082.161l1.339 1.34a1 1 0 0 0 1.414 0l6.81-6.808a1 1 0 0 0 0-1.415l-1.34-1.34a.908.908 0 0 1-.162-1.081 23.963 23.963 0 0 0 2.237-5.391.904.904 0 0 1 .878-.647H62a1 1 0 0 0 1-1v-9.628a1 1 0 0 0-1-1Z"></path><path d="M36 47a19 19 0 1 0-19-19h2a16.99 16.99 0 1 1 8.5 14.727l-1.001 1.73A18.993 18.993 0 0 0 36 47Z"></path></svg>