<svg xmlns="http://www.w3.org/2000/svg" enable-background="new 0 0 64 64" viewBox="0 0 50 50" id="user-network"><path  d="M17.43066,9.55615c0,4.41992,3.47656,9.75781,7.79492,9.75781c4.31738,0,7.79395-5.33789,7.79395-9.75781
		c0-4.29834-3.49609-7.79492-7.79395-7.79492S17.43066,5.25781,17.43066,9.55615z M31.01953,9.55615
		c0,3.38721-2.80957,7.75781-5.79395,7.75781s-5.79492-4.37061-5.79492-7.75781c0-3.19531,2.59961-5.79492,5.79492-5.79492
		C28.41992,3.76123,31.01953,6.36084,31.01953,9.55615z"></path><path  d="M4.95508,35.30371c1.83545,0,3.36841-1.2627,3.81226-2.96094h3.23853v3.94775c0,0.55225,0.44727,1,1,1
		h2.29077l-1.25806,1.25781c-1.50464-0.84583-3.52881-0.65796-4.78076,0.59424c-1.54102,1.54199-1.54102,4.05029,0,5.59229
		c1.54494,1.54494,4.04691,1.54586,5.59277,0c1.23509-1.23429,1.55551-3.1604,0.60864-4.77905l2.66577-2.66528h5.89746v3.18506
		c-1.69141,0.44849-2.94824,1.97803-2.94824,3.80859c0,2.18066,1.77441,3.95459,3.95508,3.95459s3.9541-1.77393,3.9541-3.95459
		c0-1.83569-1.2627-3.36902-2.96094-3.81274v-3.18091h5.91016l2.66675,2.66626c-0.87915,1.51318-0.68628,3.4834,0.60767,4.77808
		c0.74707,0.74707,1.74023,1.1582,2.79688,1.1582s2.0498-0.41113,2.7959-1.1582c1.54748-1.54647,1.54597-4.04733,0-5.59229
		c-1.25024-1.25195-3.27588-1.44031-4.78076-0.59424l-1.25806-1.25781h2.29077c0.55273,0,1-0.44775,1-1v-3.93555h3.18481
		c0.44824,1.69189,1.97827,2.94873,3.80933,2.94873c2.18066,0,3.9541-1.77393,3.9541-3.95459s-1.77344-3.95508-3.9541-3.95508
		c-1.83521,0-3.36865,1.26294-3.81299,2.96094h-3.24609c-0.3042-2.86987-1.72803-5.41479-3.81909-7.20007l2.24829-2.24866
		c1.62838,0.95094,3.5545,0.61591,4.7793-0.60889c1.54102-1.54199,1.54102-4.05078,0-5.59277
		c-1.49414-1.49414-4.10059-1.49414-5.59277,0c-1.2382,1.23739-1.55632,3.1707-0.60303,4.79004l-2.4895,2.48999
		c-1.61304-0.93188-3.47314-1.47485-5.45337-1.47485h-4.04688c-1.8999,0-3.72217,0.48193-5.33643,1.37708l-2.39282-2.39246
		c0.88647-1.51489,0.69531-3.49194-0.60181-4.78979c-1.49414-1.49414-4.10059-1.49414-5.59277,0
		c-1.54745,1.54644-1.54601,4.04778,0,5.59277c1.21768,1.21927,3.14338,1.56366,4.77832,0.60889l2.12598,2.12549
		c-2.27521,1.88661-3.61643,4.49429-3.91821,7.31104H8.76318c-0.44824-1.69177-1.97729-2.94873-3.80811-2.94873
		C2.77441,27.39404,1,29.16846,1,31.34912S2.77441,35.30371,4.95508,35.30371z M13.43652,43.3208
		c-0.73828,0.73779-2.02539,0.73877-2.76465,0c-0.76172-0.76221-0.76172-2.00195,0-2.76416
		c0.76316-0.76316,2.00076-0.76389,2.76465,0C14.20072,41.32084,14.20195,42.55537,13.43652,43.3208z M26.9834,44.28418
		c0,1.07764-0.87695,1.95459-1.9541,1.95459c-1.07813,0-1.95508-0.87695-1.95508-1.95459s0.87695-1.95459,1.95508-1.95459
		C26.10645,42.32959,26.9834,43.20654,26.9834,44.28418z M39.38574,40.55664c0.76419,0.76419,0.76543,1.99873,0,2.76416
		c-0.73828,0.73828-2.02637,0.73828-2.76465,0c-0.76172-0.76221-0.76172-2.00195,0-2.76416
		C37.38433,39.7934,38.62186,39.79276,39.38574,40.55664z M37.0166,16.11865c1.80637-1.80637,4.61368,0.91443,2.76465,2.76465
		c-0.73828,0.73828-2.02637,0.73828-2.76465,0C36.25231,18.11901,36.25126,16.88399,37.0166,16.11865z M10.5,18.8833
		c-0.76429-0.76429-0.76534-1.99931,0-2.76465c0.76316-0.76316,2.00076-0.76389,2.76465,0
		c0.76172,0.76221,0.76172,2.00244,0,2.76465C12.52637,19.62158,11.23828,19.62158,10.5,18.8833z M45.0459,29.39404
		c1.07715,0,1.9541,0.87695,1.9541,1.95508c0,1.07764-0.87695,1.95459-1.9541,1.95459c-1.07813,0-1.95508-0.87695-1.95508-1.95459
		C43.09082,30.27099,43.96777,29.39404,45.0459,29.39404z M23.00977,22.50976h4.04688c4.88574,0,8.9209,3.97461,8.99512,8.84521
		v3.93555h-22.0459l-0.00098-4.10059C14.17399,26.36845,18.12101,22.50976,23.00977,22.50976z M4.95508,29.39404
		c1.07715,0,1.9541,0.87695,1.9541,1.95508c0,1.07764-0.87695,1.95459-1.9541,1.95459C3.87695,33.30371,3,32.42676,3,31.34912
		C3,30.27099,3.87695,29.39404,4.95508,29.39404z"></path></svg>