<svg xmlns="http://www.w3.org/2000/svg" enable-background="new 0 0 98 98" viewBox="0 0 98 98" id="web-configuration"><path d="M90.478,1.0001H7.522C3.9258,1.0001,1,3.9258,1,7.522v82.9561c0,3.5962,2.9258,6.522,6.522,6.522H90.478
		c3.5962,0,6.522-2.9258,6.522-6.522V7.522C97,3.9258,94.0742,1.0001,90.478,1.0001z M90.478,95.0001H7.522
		c-2.4937,0-4.522-2.0283-4.522-4.522V20.273h6.5942v-2H3V7.522c0-2.4937,2.0283-4.522,4.522-4.522H90.478
		c2.4937,0,4.522,2.0283,4.522,4.522v10.751H15.2495v2H95v70.2051C95,92.9717,92.9717,95.0001,90.478,95.0001z"></path><rect width="2" height="5.461" x="7" y="62.734"></rect><path d="M9,84.7247v-12H7v12c0,3.4604,2.8149,6.2754,6.2754,6.2754h5.9448v-2h-5.9448C10.918,89.0001,9,87.0821,9,84.7247z"></path><rect width="5.33" height="2" x="22.086" y="89"></rect><path d="M86.8833 15.1363c2.4814 0 4.5-2.0186 4.5-4.5s-2.0186-4.5-4.5-4.5-4.5 2.0186-4.5 4.5S84.4019 15.1363 86.8833 15.1363zM86.8833 8.1363c1.3784 0 2.5 1.1216 2.5 2.5s-1.1216 2.5-2.5 2.5-2.5-1.1216-2.5-2.5S85.5049 8.1363 86.8833 8.1363zM75.6709 15.1363c2.4814 0 4.5-2.0186 4.5-4.5s-2.0186-4.5-4.5-4.5-4.5 2.0186-4.5 4.5S73.1895 15.1363 75.6709 15.1363zM75.6709 8.1363c1.3784 0 2.5 1.1216 2.5 2.5s-1.1216 2.5-2.5 2.5-2.5-1.1216-2.5-2.5S74.2925 8.1363 75.6709 8.1363zM64.459 15.1363c2.4814 0 4.5-2.0186 4.5-4.5s-2.0186-4.5-4.5-4.5-4.5 2.0186-4.5 4.5S61.9775 15.1363 64.459 15.1363zM64.459 8.1363c1.3784 0 2.5 1.1216 2.5 2.5s-1.1216 2.5-2.5 2.5-2.5-1.1216-2.5-2.5S63.0806 8.1363 64.459 8.1363zM57.6416 78.5274l-.5767.1748-1.3921 7.166h-9.3687l-1.3921-7.166-.5767-.1748c-1.4346-.4346-2.8247-1.0132-4.1318-1.7192l-.5327-.2876-6.0615 4.0918-6.6279-6.6274 4.0923-6.0615-.2876-.5327c-.7056-1.3071-1.2842-2.6973-1.7197-4.1323l-.1748-.5762-7.166-1.3921V51.921l7.166-1.3921.1748-.5762c.4326-1.4263 1.0098-2.8179 1.7148-4.1357l.2842-.5313-4.084-6.0591 6.6279-6.6279 6.0547 4.085.5327-.2876c1.3013-.7031 2.6938-1.2813 4.1387-1.7192l.5767-.1748 1.3916-7.1592h9.3691l1.3921 7.1592.5767.1748c1.4438.4375 2.8364 1.0161 4.1387 1.7192l.5327.2876 6.0547-4.085 6.6274 6.6274-4.085 6.0547.2876.5327c.7031 1.3018 1.2813 2.6943 1.7192 4.1387l.1748.5767 7.1592 1.3921v9.3691l-7.1592 1.3921-.1748.5767c-.4292 1.4165-1.0083 2.8101-1.7212 4.1421l1.7637.9434c.6772-1.2661 1.2441-2.5845 1.6885-3.9272l7.603-1.4785v-12.666l-7.603-1.4785c-.3862-1.1704-.8579-2.3066-1.4077-3.3906l4.335-6.4253-8.9595-8.9595-6.4253 4.335c-1.0845-.5498-2.2207-1.022-3.3906-1.4077l-1.4785-7.603h-12.666l-1.478 7.603c-1.1709.3862-2.3071.8579-3.3906 1.4077l-6.4253-4.335-8.96 8.959 4.3369 6.4341c-.5498 1.0908-1.02 2.2241-1.4028 3.3823l-7.6099 1.4785v12.666l7.6104 1.4785c.3848 1.1641.8564 2.2979 1.4077 3.3838l-4.3423 6.4321 8.96 8.9595 6.4321-4.3418c1.0859.5518 2.2197 1.0229 3.3838 1.4077l1.478 7.6099h12.666l1.4785-7.6099c1.3486-.4453 2.6646-1.0098 3.9204-1.6816l-.9434-1.7637C60.458 77.5186 59.0664 78.0958 57.6416 78.5274z"></path><path d="M69.019,64.5294c1.1011-2.5024,1.6592-5.168,1.6592-7.9238c0-10.8569-8.833-19.6899-19.6899-19.6899
		s-19.6899,8.833-19.6899,19.6899s8.833,19.6899,19.6899,19.6899c3.0581,0,5.9888-0.6821,8.7104-2.0269l-0.8857-1.793
		c-2.4438,1.2075-5.0767,1.8198-7.8247,1.8198c-9.7544,0-17.6899-7.9355-17.6899-17.6899s7.9355-17.6899,17.6899-17.6899
		s17.6899,7.9355,17.6899,17.6899c0,2.4766-0.5015,4.8716-1.4902,7.1182L69.019,64.5294z"></path><path d="M62.3174,60.2349c1.3919-4.2061,0.43-9.0272-2.9102-12.3676c-2.2832-2.2832-5.3154-3.5405-8.5371-3.5405
		c-1.6232,0-2.6076,0.3054-4.0562,0.541l6.1992,6.1992l-0.2217,7.2891l-7.2852,0.2188l-6.2031-6.2036
		c0.013,0.6713-2.4282,7.1757,2.999,12.6011c3.3311,3.3318,8.1112,4.3339,12.3742,2.9177l18.7601,18.7596
		c2.1124,2.1134,5.5341,2.1139,7.6479,0c2.1084-2.1084,2.1084-5.5391,0-7.6479L62.3174,60.2349z M43.7163,63.5582
		c-1.8521-1.8521-2.8916-4.3296-2.9517-6.897l3.938,3.939l10.0303-0.3018l0.3057-10.0342l-3.9346-3.9346
		c2.6001,0.0586,5.0386,1.1016,6.8892,2.9517c3.9355,3.936,3.9355,10.3408,0,14.2769
		C54.0475,67.5038,47.6621,67.5039,43.7163,63.5582z M79.6704,85.2354c-1.2881,1.2871-3.5327,1.2871-4.8198,0L56.6508,67.0361
		c0.9991-0.5474,1.9284-1.2359,2.7564-2.0639c0.8371-0.8372,1.5182-1.7708,2.0581-2.7613l18.2051,18.2047
		C80.999,81.7447,80.999,83.9068,79.6704,85.2354z"></path><circle cx="76.776" cy="82.342" r="1.738"></circle><rect width="8.726" height="2" x="63.323" y="72.221" transform="rotate(-134.999 67.686 73.221)"></rect><rect width="2" height="1.694" x="61.757" y="67.444" transform="rotate(-45.001 62.756 68.292)"></rect><rect width="2" height="28.587" x="88.009" y="42.938"></rect><rect width="2" height="3.537" x="88.009" y="34.898"></rect><rect width="5.693" height="2" x="38.687" y="9.636"></rect><rect width="25.327" height="2" x="9.594" y="9.636"></rect></svg>