<svg xmlns="http://www.w3.org/2000/svg" viewBox="0 0 64 64" id="web-chat"><g data-name="Outline"><path d="M57 2H7a5.006 5.006 0 0 0-5 5v50a5.006 5.006 0 0 0 5 5h50a5.006 5.006 0 0 0 5-5V7a5.006 5.006 0 0 0-5-5Zm3 55a3 3 0 0 1-3 3H7a3 3 0 0 1-3-3V16h56Zm0-43H4V7a3 3 0 0 1 3-3h50a3 3 0 0 1 3 3Z"></path><path d="M34 47h16a1 1 0 0 0 0-2H34a1 1 0 0 0 0 2Z"></path><circle cx="9" cy="9" r="1"></circle><circle cx="14" cy="9" r="1"></circle><circle cx="19" cy="9" r="1"></circle><circle cx="50" cy="34" r="1"></circle><path d="M55 8H45a1 1 0 0 0 0 2h10a1 1 0 0 0 0-2zM11 42.873v4.309a1.8 1.8 0 0 0 3.116 1.23L19.184 43H28v4.8a4.209 4.209 0 0 0 4.2 4.2h12.616l5.068 5.412A1.8 1.8 0 0 0 53 56.182v-4.309A4.006 4.006 0 0 0 56 48V32.2a4.209 4.209 0 0 0-4.2-4.2H36v-4.8a4.209 4.209 0 0 0-4.2-4.2H12.2A4.209 4.209 0 0 0 8 23.2V39a4.006 4.006 0 0 0 3 3.873zM35.36 41H50a1 1 0 0 0 0-2H35.979c0-.069.021-.134.021-.2V35h10a1 1 0 0 0 0-2H36v-3h15.8a2.206 2.206 0 0 1 2.2 2.2V48a2 2 0 0 1-2 2 1 1 0 0 0-1 1v4.678l-5.02-5.362a1 1 0 0 0-.73-.316H32.2a2.206 2.206 0 0 1-2.2-2.2V43h1.8a4.194 4.194 0 0 0 3.56-2zM10 23.2a2.206 2.206 0 0 1 2.2-2.2h19.6a2.206 2.206 0 0 1 2.2 2.2v15.6a2.206 2.206 0 0 1-2.2 2.2H18.75a1 1 0 0 0-.73.316L13 46.678V42a1 1 0 0 0-1-1 2 2 0 0 1-2-2z"></path><path d="M14 26h16a1 1 0 0 0 0-2H14a1 1 0 0 0 0 2zm0 6h16a1 1 0 0 0 0-2H14a1 1 0 0 0 0 2zm0 6h16a1 1 0 0 0 0-2H14a1 1 0 0 0 0 2zm25-15a1 1 0 0 0 1-1v-2a1 1 0 0 0-2 0v2a1 1 0 0 0 1 1zm3 3h2a1 1 0 0 0 0-2h-2a1 1 0 0 0 0 2zM25 49a1 1 0 0 0-1 1v2a1 1 0 0 0 2 0v-2a1 1 0 0 0-1-1zm-3-3h-2a1 1 0 0 0 0 2h2a1 1 0 0 0 0-2z"></path></g></svg>